<?xml version="1.0" encoding="UTF-8"?>
<svg xmlns="http://www.w3.org/2000/svg" width='40px' height='40px' viewBox="0 0 40 40">
  <path d="m20.01,39.75c-1.86,0-3.51-.11-5.37-.32-1.3-.15-2.13-1.28-2.13-2.9l-.25-3.16V12.03l.5-8.83c0-1.07,1.12-2.44,2.73-2.7,1.69-.27,2.91-.41,4.58-.41s2.84.14,4.49.4c1.6.26,2.71,1.63,2.71,2.7l.5,8.84v21.35l-.25,3.16c0,1.62-.84,2.75-2.13,2.9-1.86.21-3.51.32-5.37.32Z" fill="#0a57a7" stroke-width="0"/>
  <path d="m12.24,12.03v21.35c5.16,1.65,10.33,1.66,15.52,0V12.03c-5.17-2.32-10.35-2.32-15.52,0Z" fill="#e8f2fb" stroke-width="0"/>
  <path d="m25.45,24.9c-.02-.11-.05-.21-.07-.32-.05-.25-.03-.49.04-.72-.12-1.01-.17-2.02-.15-3.04,0-.23.05-.43.14-.61-.2-.26-.32-.59-.31-.95,0-.14,0-.29.03-.44.47-2.24,1.53-4.53,2.39-6.89-2.53-1.1-5.06-1.65-7.59-1.64v24.33c2.48,0,4.96-.37,7.45-1.13-.86-1.42-1.75-2.87-2.19-4.45-.41-1.48-.19-2.82.25-4.15Z" fill="#cde3f5" stroke-width="0"/>
  <path d="m14.77,18.47c-.1,0-.2-.06-.23-.16l-2.21-6.06c-.05-.13.02-.27.15-.32.13-.05.27.02.32.15l2.21,6.06c.05.13-.02.27-.15.32-.03.01-.06.02-.09.02Z" fill="#fff" stroke-width="0"/>
  <path d="m12.61,33.44c-.06,0-.12-.01-.18-.05-.18-.1-.25-.32-.15-.5l2.74-5.05c.1-.18.32-.25.5-.15.18.1.25.32.15.5l-2.74,5.05c-.07.12-.2.2-.33.2Z" fill="#fff" stroke-width="0"/>
  <rect x="12.24" y="22.64" width="3.06" height=".74" fill="#c3d0d0" stroke-width="0"/>
  <path d="m25.3,18.52s-.06,0-.09-.02c-.13-.05-.19-.19-.15-.32l2.21-6.03c.05-.13.19-.2.32-.15.13.05.19.19.15.32l-2.21,6.03c-.04.1-.13.16-.23.16Z" fill="#fff" stroke-width="0"/>
  <path d="m27.39,33.49c-.13,0-.26-.07-.33-.2l-2.72-5.03c-.1-.18-.03-.41.15-.5.18-.1.41-.03.5.15l2.72,5.03c.1.18.03.41-.15.5-.06.03-.12.05-.18.05Z" fill="#fff" stroke-width="0"/>
  <rect x="24.7" y="22.64" width="3.06" height=".74" fill="#c3d0d0" stroke-width="0"/>
  <path d="m20,31.15c-1.99,0-4.01-.27-6.02-.8v-13.92c2.01-.77,4.03-1.16,6.02-1.16s4.01.39,6.02,1.16v13.92c-2.01.53-4.03.81-6.03.81h0Z" fill="#fff" stroke-width="0"/>
  <path d="m12.24,13.62l-2.37.25v-.13c0-.58.44-1.06,1.01-1.13l1.36-.14v1.15Z" fill="#333e42" stroke-width="0"/>
  <path d="m27.76,13.62l2.37.25v-.13c0-.58-.44-1.06-1.01-1.13l-1.36-.14v1.15Z" fill="#333e42" stroke-width="0"/>
  <g>
    <path d="m12.77,2.9l2.98-1.43c.39-.19.63-.58.63-1.01h0c0-.11-.1-.19-.2-.16l-1.55.32c-1.08.22-1.86,1.18-1.86,2.28h0Z" fill="#627682" stroke-width="0"/>
    <path d="m13.71,1.03c-.58.43-.95,1.12-.95,1.88l.95-.46v-1.42Z" fill="#f5af2a" stroke-width="0"/>
    <rect x="14.89" y=".86" width=".87" height=".31" fill="#bbd1d8" stroke-width="0"/>
    <rect x="13.92" y="1.44" width=".87" height=".31" fill="#bbd1d8" stroke-width="0"/>
  </g>
  <g>
    <path d="m27.24,2.9l-2.98-1.43c-.39-.19-.63-.58-.63-1.01h0c0-.11.1-.19.2-.16l1.55.32c1.08.22,1.86,1.18,1.86,2.28h0Z" fill="#627682" stroke-width="0"/>
    <path d="m26.29,1.03c.58.43.95,1.12.95,1.88l-.95-.46v-1.42Z" fill="#f5af2a" stroke-width="0"/>
    <rect x="24.24" y=".86" width=".87" height=".31" transform="translate(49.35 2.03) rotate(180)" fill="#bbd1d8" stroke-width="0"/>
    <rect x="25.21" y="1.44" width=".87" height=".31" transform="translate(51.29 3.2) rotate(180)" fill="#bbd1d8" stroke-width="0"/>
  </g>
  <path d="m23.25,40c-.12,0-.23-.09-.25-.22-.02-.14.08-.26.22-.27l2.78-.31c.14-.02.26.08.27.22.02.14-.08.26-.22.27l-2.78.31s-.02,0-.03,0Z" fill="#c9161d" stroke-width="0"/>
  <path d="m16.73,40s-.02,0-.03,0l-2.78-.31c-.14-.02-.23-.14-.22-.27.02-.14.14-.23.27-.22l2.78.31c.14.02.23.14.22.27-.01.13-.12.22-.25.22Z" fill="#c9161d" stroke-width="0"/>
  <rect x="14.17" y="20.4" width="10.71" height="2.3" rx=".9" ry=".9" fill="#304653" opacity=".3" stroke-width="0"/>
  <rect x="14.67" y="19.9" width="10.71" height="2.3" rx=".9" ry=".9" fill="#b91c22" stroke-width="0"/>
  <path d="m20.09,19.9h-4.96c-.25,0-.45.2-.45.45v1.39c0,.25.2.45.45.45h4.96v-2.3Z" fill="#1e4ea0" stroke-width="0"/>
  <rect x="21.1" y="20.66" width="3.53" height=".81" fill="#e7211a" stroke-width="0"/>
  <rect x="15.42" y="20.66" width="3.37" height=".81" fill="#36a7e0" stroke-width="0"/>
  <rect x="18.11" y="19.9" width="3.66" height="2.3" fill="#333e42" stroke-width="0"/>
  <rect x="18.11" y="20.55" width="3.66" height=".99" fill="#9ea8a8" opacity=".3" stroke-width="0"/>
  <path d="m15.41,10.95L16.45.36s.29-.23,3.2-.29c2.91-.06,3.95.29,3.95.29l.8,10.5s-6.12-.87-9,.09Z" fill="#fff" stroke-width="0"/>
  <polygon points="16.37 1.22 15.74 10.88 15.2 10.97 16.37 1.22" fill="#d7a42a" stroke-width="0"/>
  <polygon points="23.65 .88 24.73 10.96 24.18 10.83 23.65 .88" fill="#dfa824" stroke-width="0"/>
  <rect x="21.26" y=".05" width="1.93" height=".56" rx=".22" ry=".22" transform="translate(.07 -1.48) rotate(3.82)" fill="#e7211a" stroke-width="0"/>
  <rect x="16.73" y=".05" width="1.93" height=".56" rx=".22" ry=".22" transform="translate(35.37 -.52) rotate(176.18)" fill="#2d62ae" stroke-width="0"/>
  <g>
    <path d="m20.05,2.45c-.27.12-.52.25-.76.41-.23.15-.44.32-.63.51-.36.35-.67.78-.91,1.26-.42.85-.65,1.89-.67,3.1v.1s.09.03.09.03c.1.03.45.13,1.05.23.59.1,1.17.15,1.75.16.58.01,1.17-.02,1.76-.09.6-.07.96-.16,1.06-.18l.1-.02v-.1c.03-1.21-.16-2.26-.54-3.13-.22-.49-.51-.93-.85-1.3-.18-.19-.39-.37-.61-.53-.23-.16-.47-.31-.74-.44l-.05-.03-.05.02Z" fill="#fdd000" stroke-width="0"/>
    <path d="m20.1,2.57c-2.13.92-2.84,3-2.88,5.16.37.11,1.46.36,2.77.38,1.31.03,2.41-.17,2.78-.27.04-2.16-.57-4.27-2.67-5.28Z" fill="#00479d" stroke-width="0"/>
    <polygon points="20.18 7.5 20.18 7.5 20.18 7.5 20.18 7.5" fill="#231815" stroke-width="0"/>
    <polygon points="20.18 7.5 20.18 7.5 20.18 7.5 20.18 7.5" fill="#231815" stroke-width="0"/>
    <g>
      <path d="m18.67,4.96v-.15s-.02-.05-.04-.05h-.41s0,.07,0,.07h.37s0,.05,0,.05h-.36s0,.19,0,.19h.46s0-.07,0-.07h-.36s0-.04,0-.04h.36Z" fill="#fff" stroke-width="0"/>
      <polygon points="18.21 5.31 18.21 5.41 18.31 5.41 18.31 5.1 18.21 5.1 18.21 5.23 18.13 5.22 18.13 5.31 18.21 5.31" fill="#fff" stroke-width="0"/>
      <polygon points="21.45 5.42 21.55 5.42 21.55 5.34 21.45 5.34 21.45 5.29 21.55 5.29 21.55 5.21 21.45 5.21 21.45 5.15 21.36 5.14 21.35 5.47 21.45 5.47 21.45 5.42" fill="#fff" stroke-width="0"/>
      <path d="m21.58,5.17c.13,0,.21-.08.22-.18,0-.1-.08-.19-.21-.19s-.21.08-.22.18c0,.1.08.19.21.19Zm0-.29c.07,0,.11.05.11.11s-.04.1-.11.1-.11-.05-.11-.11c0-.06.04-.1.11-.1Z" fill="#fff" stroke-width="0"/>
      <path d="m18.56,5.22c-.03-.05-.08-.09-.17-.12l-.04.07s.11.03.14.14h-.12s0,.08,0,.08h.13s0,.05,0,.05h.1s0-.05,0-.05h.13s0-.08,0-.08h-.12c.04-.11.15-.14.15-.14l-.03-.07c-.09.03-.14.07-.17.12Z" fill="#fff" stroke-width="0"/>
      <path d="m21.58,5.43s.02.04.04.04h.28s0-.08,0-.08h-.2s.05-.14.23-.17l-.02-.08c-.26.04-.32.19-.32.29Z" fill="#fff" stroke-width="0"/>
    </g>
    <path d="m17.44,7.27c-.06.06-.08.13-.08.18,0,.07.03.13.03.13.12-.13.67-.63,1.46-.68v.07s0,0,0,0l.85.02s0,.08.01.11h0s0,0,0,0h0s0,0,0,0c.01.09.02.16.03.2-.04.03-.07.06-.09.11-.02.04-.03.09-.03.13h0s0,0,0,0c.01,0,.04-.02.04-.02.04-.01.11-.03.23-.02.06,0,.12,0,.16,0,.05,0,.09,0,.12-.01.03,0,.06-.02.08-.04.02-.01.03-.03.03-.04.05,0,.11,0,.16-.01.03,0,.05-.02.07-.04.02-.02.02-.05.03-.08h0s0-.05-.01-.09c-.02-.05-.04-.08-.07-.11h0s0,0,0,0c0,0,0,.06-.09.06,0,0-.02,0-.03,0-.02,0-.03,0-.04-.01,0,0,0-.02,0-.04,0,0,0-.04.02-.09h0s0,0,0,0c0,0,0,0,0-.01l.86.02s0,0,0,0v-.07c.79.09,1.32.61,1.43.74,0,0,.03-.05.03-.12,0-.05-.01-.12-.07-.18,0,0,0,0,0,0,.02-.06.06-.22-.09-.35,0-.01,0-.04,0-.06,0-.08-.02-.2-.17-.3,0,0,0,0-.02-.01,0-.03,0-.26-.32-.35-.03-.09-.12-.22-.34-.24-.06-.1-.15-.16-.27-.16-.03-.05-.08-.08-.15-.1-.04-.01-.09-.01-.13,0-.01-.01-.04-.03-.07-.04,0,0,0,0,0,0,.04-.03.06-.06.07-.1.02-.07.02-.13-.04-.22-.02-.03-.04-.06-.04-.09,0-.03,0-.07,0-.12,0-.03,0-.06-.02-.09-.01-.03-.03-.05-.05-.07-.01-.01-.03-.02-.04-.02.01-.01.02-.03.02-.05,0-.03.01-.06,0-.09,0-.03-.02-.06-.04-.08-.03-.04-.05-.07-.06-.1-.01-.03-.02-.06-.02-.1,0-.11-.03-.16-.09-.21-.05-.04-.11-.06-.22-.03-.04.01-.07.01-.1.01-.03,0-.07-.01-.11-.03-.03-.01-.06-.01-.09-.01-.03,0-.06.01-.08.03-.01,0-.03.02-.04.04,0-.01-.02-.03-.04-.04-.02-.02-.05-.03-.08-.03-.03,0-.06,0-.09,0-.05.01-.08.02-.11.03-.03,0-.06,0-.1-.02-.11-.04-.17-.02-.22.02-.06.04-.09.09-.09.2,0,.04,0,.07-.02.1-.01.03-.03.06-.06.1-.02.03-.03.05-.04.08,0,.03,0,.06,0,.09,0,.02.01.03.02.05-.02,0-.03.01-.05.02-.02.02-.04.04-.06.07-.01.03-.02.06-.02.09,0,.05,0,.09-.01.12,0,.03-.02.06-.05.09-.07.09-.07.15-.05.22.01.04.03.08.07.11,0,0,0,0,0,0-.03.01-.06.03-.07.04-.04,0-.09,0-.13,0-.07.01-.13.05-.16.09-.12,0-.21.05-.28.15-.22.01-.31.13-.35.22-.33.07-.34.3-.34.33,0,0-.02.01-.02.01-.15.09-.18.21-.18.29,0,.02,0,.05,0,.06-.16.13-.13.29-.11.35,0,0,0,0,0,0Zm2.99-.65c.06,0,.2.04.3.15.02.03.05.05.08.07-.05,0-.33-.04-.43-.05.02-.05.03-.11.06-.17Zm-1.12.12c.11-.11.24-.13.3-.14.02.06.03.12.05.18-.1,0-.38.03-.43.03.03-.02.05-.04.08-.07Z" fill="#ad7207" stroke-width="0"/>
    <g>
      <polygon points="18.71 6.42 19.06 6.42 19.06 6.43 18.87 6.8 18.71 6.42" fill="#fdd000" stroke-width="0"/>
      <path d="m18.57,6.61c.05-.02.11-.03.17-.03l.05.12c-.13.02-.26.04-.37.07,0-.04.03-.13.15-.16Z" fill="#fdd000" stroke-width="0"/>
      <path d="m18.53,6.58c.02-.08.06-.13.13-.16l.05.12c-.05,0-.11.01-.16.03,0,0-.01,0-.02,0Z" fill="#fdd000" stroke-width="0"/>
      <path d="m19.47,5.79s0,.01,0,.01c0,0,0,0,.01,0,0,0,0,0,0,0,0,0,0,0,0,0l.2-.19s.03.03.04.04l-.18.23s-.06.06-.1.06c-.04,0-.08-.02-.1-.06-.03-.04-.06-.08-.08-.1.06-.04.22-.15.36-.24.01.02.02.04.04.05l-.2.19s0,0,0,.01Z" fill="#fdd000" stroke-width="0"/>
      <path d="m19.71,5.97s0,0,0,.01c0,0,.01,0,.02,0,0,0,0,0,.01,0l.13-.25s.04.01.06.02c-.05.16-.11.34-.14.41-.03-.02-.07-.04-.12-.05-.04-.02-.07-.05-.08-.08-.01-.04,0-.08.03-.11l.17-.23s.03.02.05.03l-.13.24s0,0,0,0c0,0,0,0,0,0Z" fill="#fdd000" stroke-width="0"/>
      <path d="m20.36,5.97l-.12-.25s.04-.02.05-.03l.16.24s.03.08.02.11c-.01.04-.04.07-.09.08-.05.02-.09.03-.12.05-.02-.07-.07-.25-.12-.42.02,0,.04-.01.06-.02l.12.25s0,0,.01,0c0,0,.01,0,.02,0,0,0,0,0,0-.01,0,0,0,0,0,0,0,0,0,0,0,0Z" fill="#fdd000" stroke-width="0"/>
      <path d="m20.59,5.8l-.19-.2s.03-.03.04-.05c.14.1.29.21.35.26-.03.02-.06.06-.09.1-.03.04-.07.05-.11.05-.04,0-.07-.03-.1-.06l-.17-.23s.03-.03.05-.04l.19.2s0,0,0,0c0,0,0,0,0,0,0,0,.01,0,.01,0,0,0,0,0,0-.01,0,0,0-.01,0-.01Z" fill="#fdd000" stroke-width="0"/>
      <path d="m19.1,6.65s-.08.04-.12.04l.04-.07s.06.02.09.03Z" fill="#fdd000" stroke-width="0"/>
      <path d="m19.03,6.59l.04-.09c.05.03.09.05.12.07,0,0,0,0,0,0-.02.02-.03.04-.05.05-.03-.01-.06-.03-.11-.04Z" fill="#fdd000" stroke-width="0"/>
      <path d="m19.22,6.61c.08-.1.21-.17.34-.18.01.04.03.08.04.12-.07,0-.21.03-.33.15-.07.07-.17.14-.3.13-.02,0-.04,0-.06,0l.05-.1c.09,0,.19-.03.27-.13Z" fill="#fdd000" stroke-width="0"/>
      <path d="m19.5,5.99s.02,0,.02,0c0,0,0,0,0,0,0,0,0,0,0,0,0,.02,0,.03,0,.05,0,0,0,0,0,0,0,0-.02.02-.02.04,0-.03-.01-.06-.02-.09Z" fill="#fdd000" stroke-width="0"/>
      <path d="m19.55,6.08s.05.06.09.08c0,0-.05.04-.07.12-.02-.05-.03-.1-.04-.15,0-.02.02-.03.03-.05Z" fill="#fdd000" stroke-width="0"/>
      <path d="m19.71,6.33s-.06.07-.07.15c0,0,0,0,0,0-.01-.04-.02-.07-.03-.11,0,0,0,0,0,0,0-.01,0-.02-.01-.03,0-.08.05-.13.06-.14.02.01.06.06.06.14Z" fill="#fdd000" stroke-width="0"/>
      <path d="m19.67,6.16s.07.02.09.04c-.01.01-.03.03-.04.06-.01-.05-.04-.08-.05-.1Z" fill="#fdd000" stroke-width="0"/>
      <path d="m19.64,6.51s0,0,.01,0c.02.01.05.05.06.12,0,0-.02.01-.03.03-.01-.05-.03-.09-.04-.14Z" fill="#fdd000" stroke-width="0"/>
      <path d="m19.66,6.46h0c.02-.06.05-.1.07-.11.02.01.05.06.06.13-.01.01-.04.04-.06.09-.02-.07-.06-.11-.07-.11Z" fill="#fdd000" stroke-width="0"/>
      <path d="m19.8,6.51s.05.05.06.12c-.01.01-.04.04-.06.1-.01-.05-.04-.09-.06-.1.01-.06.05-.11.06-.11Z" fill="#fdd000" stroke-width="0"/>
      <path d="m19.87,6.66s.05.05.06.12c-.01.01-.04.04-.06.1-.01-.05-.04-.09-.06-.1.01-.06.05-.1.06-.11Z" fill="#fdd000" stroke-width="0"/>
      <path d="m19.89,6.63c.01-.06.05-.11.06-.11.01.01.05.05.06.12-.01.01-.04.04-.06.1-.01-.05-.04-.09-.06-.1Z" fill="#fdd000" stroke-width="0"/>
      <path d="m20.02,6.66s.05.05.06.12c-.01.01-.04.04-.06.1-.01-.05-.04-.09-.06-.1.01-.06.04-.1.06-.11Z" fill="#fdd000" stroke-width="0"/>
      <path d="m20.04,6.63c0-.06.05-.11.06-.11.01.01.05.05.06.12-.01.01-.04.04-.06.1-.01-.05-.04-.09-.06-.1Z" fill="#fdd000" stroke-width="0"/>
      <path d="m20.17,6.67s.05.05.06.12c-.01.01-.04.04-.06.1-.01-.05-.04-.09-.06-.1.01-.06.05-.1.06-.11Z" fill="#fdd000" stroke-width="0"/>
      <path d="m20.19,6.64c0-.06.05-.11.06-.11.01.01.05.05.06.12-.01.01-.04.04-.06.1-.01-.05-.04-.09-.06-.1Z" fill="#fdd000" stroke-width="0"/>
      <path d="m20.26,6.49c.01-.07.05-.11.06-.12.01,0,.05.05.06.11h0s-.05.03-.07.11c-.02-.05-.04-.08-.06-.09Z" fill="#fdd000" stroke-width="0"/>
      <path d="m20.54,6s0,0,0,0c0,0,.02,0,.02,0,0,.03-.01.06-.02.09,0-.01-.01-.03-.02-.04,0,0,0,0,0,0,0-.02,0-.03,0-.05,0,0,0,0,0,0Z" fill="#fdd000" stroke-width="0"/>
      <path d="m20.53,6.14s-.03.1-.05.15c-.02-.08-.06-.12-.07-.12.04-.02.07-.04.09-.07,0,.01.02.03.02.05Z" fill="#fdd000" stroke-width="0"/>
      <path d="m20.47,6.35s0,.02-.01.03h0s-.03.07-.04.11c0,0,0,0,0,0-.01-.08-.05-.13-.07-.15,0-.08.05-.12.06-.14.02.01.06.06.06.14Z" fill="#fdd000" stroke-width="0"/>
      <path d="m20.33,6.28s-.02-.05-.03-.06c.02-.01.05-.02.09-.03-.02.02-.04.05-.06.1Z" fill="#fdd000" stroke-width="0"/>
      <path d="m20.39,6.51s0,0,.01.01c-.02.05-.03.1-.05.14-.01-.02-.02-.03-.03-.03,0-.07.05-.11.06-.12Z" fill="#fdd000" stroke-width="0"/>
      <path d="m20.77,6.73c-.11-.12-.25-.16-.32-.17.01-.04.03-.08.04-.12.12.01.25.09.33.19.07.1.17.14.26.14l.04.1s-.04,0-.06,0c-.13,0-.22-.07-.29-.15Z" fill="#fdd000" stroke-width="0"/>
      <path d="m20.94,6.69s.05-.02.09-.03l.03.07s-.08-.02-.12-.05Z" fill="#fdd000" stroke-width="0"/>
      <path d="m20.91,6.66s-.03-.03-.05-.05c0,0,0,0,0,0,.02-.01.07-.04.12-.07l.04.09s-.08.02-.11.03Z" fill="#fdd000" stroke-width="0"/>
      <path d="m20.94,6.46l.02.04c-.06.03-.11.06-.13.07-.02-.02-.03-.04-.05-.05.05-.05.19-.2.38-.2.11,0,.16.06.19.1-.04-.02-.1-.04-.17-.05-.12,0-.2.05-.23.07,0,0,0,.01,0,.02Z" fill="#fdd000" stroke-width="0"/>
      <path d="m20.75,6.49s-.04-.03-.06-.04c.03-.05.13-.22.3-.24.1-.01.15.04.17.07-.21,0-.36.16-.41.21Z" fill="#fdd000" stroke-width="0"/>
      <path d="m20.65,6.44s-.05-.02-.07-.02c.02-.06.08-.19.18-.25.09-.05.16-.01.19.02-.17.04-.27.21-.29.26Z" fill="#fdd000" stroke-width="0"/>
      <path d="m20.73,6.13c-.12.06-.17.22-.19.27,0,0-.02,0-.03,0,.03-.09.06-.18.09-.26.06-.05.12-.03.16-.02,0,0-.01,0-.02,0Z" fill="#fdd000" stroke-width="0"/>
      <path d="m20.27,6.23s.04.05.05.09c0,0-.05.03-.07.1-.02-.07-.06-.1-.06-.1h0s.02-.03.04-.05c.02-.02.03-.04.05-.05Z" fill="#fdd000" stroke-width="0"/>
      <path d="m20.23,6.49s-.05.04-.06.1c-.02-.06-.05-.09-.06-.1.01-.06.05-.11.06-.12.01.01.05.05.06.12Z" fill="#fdd000" stroke-width="0"/>
      <path d="m20.09,6.44s-.02-.04-.03-.05c.02,0,.03,0,.05-.02,0,0,0,0,.01,0-.01.02-.03.04-.04.07Z" fill="#fdd000" stroke-width="0"/>
      <path d="m20.08,6.49s-.04.04-.06.1c-.01-.05-.04-.09-.06-.1.01-.05.04-.08.05-.09,0,0,0,0,0,0,0,0,0,0,0,0,.01.01.04.05.05.1Z" fill="#fdd000" stroke-width="0"/>
      <path d="m19.95,6.44s-.02-.06-.04-.08c0,0,0,0,.01,0,.02,0,.03.01.05.02,0,.01-.02.03-.03.05Z" fill="#fdd000" stroke-width="0"/>
      <path d="m19.94,6.48s-.05.04-.06.1c-.02-.06-.05-.09-.06-.1.01-.06.05-.11.06-.12.01.01.05.05.06.12Z" fill="#fdd000" stroke-width="0"/>
      <path d="m19.87,6.33s-.04.03-.07.1c-.02-.07-.06-.1-.07-.11,0-.05.03-.08.05-.09.02.01.03.03.05.06.01.02.02.03.03.04h0Z" fill="#fdd000" stroke-width="0"/>
      <path d="m19.54,6.38s-.02,0-.03,0c-.02-.06-.07-.21-.18-.28,0,0-.01,0-.02-.01.03,0,.1-.02.16.03.02.08.05.17.08.26Z" fill="#fdd000" stroke-width="0"/>
      <path d="m19.47,6.39s-.05.01-.07.02c-.02-.05-.11-.22-.28-.27.03-.03.1-.06.19,0,.1.06.15.2.17.25Z" fill="#fdd000" stroke-width="0"/>
      <path d="m19.36,6.43s-.04.02-.06.04c-.04-.06-.19-.22-.4-.23.02-.03.07-.08.17-.06.17.03.26.2.29.25Z" fill="#fdd000" stroke-width="0"/>
      <path d="m19.27,6.49s-.04.03-.05.05c-.02-.02-.07-.05-.13-.08l.02-.04s0,0,0-.02c-.02-.02-.11-.08-.22-.08-.07,0-.13.02-.18.04.03-.04.08-.09.19-.09.19,0,.33.16.37.21Z" fill="#fdd000" stroke-width="0"/>
      <path d="m18.9,6.92v-.03s.62-.04.78-.05c0,.03.01.06.01.08h0s0,0,0,.01l-.79-.02Z" fill="#fdd000" stroke-width="0"/>
      <path d="m19.69,6.69s.02-.03.03-.03c.01,0,.05.05.06.12-.01.01-.03.03-.05.07,0-.05-.02-.1-.04-.15Z" fill="#fdd000" stroke-width="0"/>
      <path d="m20.33,7.21h0s.02,0,.03,0c.01,0,.07,0,.09-.04.01.02.02.04.03.06,0,.02,0,.04,0,.07,0,.02,0,.04-.01.05,0,.01-.02.02-.04.02-.04.01-.1.01-.15,0h0s0,0,0,0h-.01s-.08-.04-.11-.09c0,0-.13.02-.22.1,0,0,.16-.01.29,0,0,0,0,0,0,0,0,0,0,0,0,0,0,0,0,0,0,0h0s-.03.04-.08.05h0s-.06.01-.1.01c-.05,0-.1,0-.16,0-.09,0-.16,0-.2,0,.01-.04.04-.08.09-.11h0s0,0,0,0h.02s.02-.02.02-.02v-.02s-.01-.02-.01-.02c-.01-.04-.02-.11-.03-.19h0c0-.06-.01-.13-.02-.19,0,0,0,0,0,0,0-.06.03-.1.05-.11h0s.06.07.06.15h.02s0,0,0,0c0-.08.04-.13.06-.14h0s.06.07.06.15h0s.02,0,.02,0h0c0-.08.05-.13.06-.14h0s.06.07.06.15h0s.02,0,.02,0h0c0-.08.04-.13.06-.14h0s.04.05.04.1c-.01.04-.02.08-.02.08-.02.05-.02.09-.02.09h0s0,.06.02.08c.02.02.04.03.08.03Z" fill="#fdd000" stroke-width="0"/>
      <path d="m20.26,6.78c.01-.06.05-.1.06-.11,0,0,.02.02.03.03-.02.05-.03.11-.04.15-.01-.04-.03-.06-.04-.07Z" fill="#fdd000" stroke-width="0"/>
      <path d="m21.13,6.96l-.79-.02s0-.03.01-.04h0s0,0,0,0h0s0-.03.01-.05c.17.02.77.08.77.08v.03Z" fill="#fdd000" stroke-width="0"/>
      <polygon points="21.16 6.85 20.99 6.47 20.99 6.46 21.34 6.47 21.16 6.85" fill="#fdd000" stroke-width="0"/>
      <path d="m21.49,6.64c-.05-.02-.11-.03-.16-.03l.06-.12c.06.03.1.08.12.16,0,0-.01,0-.02,0Z" fill="#fdd000" stroke-width="0"/>
      <path d="m21.62,6.84c-.12-.04-.24-.07-.37-.09l.06-.12c.06,0,.11.01.16.03.12.04.14.13.15.17Z" fill="#fdd000" stroke-width="0"/>
      <path d="m22.58,7.57c-.32-.34-.88-.64-1.4-.69l.04-.09c.69.1,1.16.47,1.31.62.05.05.06.12.05.15Z" fill="#fdd000" stroke-width="0"/>
      <path d="m22.52,7.34c-.14-.13-.45-.35-.86-.49,0-.03-.01-.1-.07-.16.27.04.65.18.85.36.12.11.11.22.09.28Z" fill="#fdd000" stroke-width="0"/>
      <path d="m22.43,6.99c-.23-.19-.61-.31-.87-.33,0-.05-.02-.1-.06-.14.24-.01.56.03.79.19.15.1.15.22.14.28Z" fill="#fdd000" stroke-width="0"/>
      <path d="m22.03,6.38c.12.05.2.13.21.25-.24-.14-.55-.16-.78-.15-.02-.01-.04-.03-.06-.04,0,0-.02-.05-.06-.09.09-.03.4-.1.68.02Z" fill="#fdd000" stroke-width="0"/>
      <path d="m21.61,6.12c.15,0,.25.06.3.17-.3-.07-.57.02-.6.04-.03-.02-.06-.03-.1-.04,0,0-.01-.03-.04-.06.05-.03.23-.12.45-.11Z" fill="#fdd000" stroke-width="0"/>
      <path d="m21.58,6.08c-.21,0-.39.09-.45.13-.03-.02-.08-.03-.14-.03,0,0-.02-.02-.03-.03.05-.04.17-.14.34-.17.13-.02.21.01.27.1Z" fill="#fdd000" stroke-width="0"/>
      <path d="m21.2,5.86s.09.03.11.06c-.2.02-.34.15-.38.2-.03-.02-.08-.03-.13-.02,0,0-.02-.01-.03-.02.05-.06.21-.25.43-.22Z" fill="#fdd000" stroke-width="0"/>
      <path d="m21.02,5.83c-.16.05-.27.19-.3.24-.03,0-.07,0-.11.01,0-.03.01-.05.01-.07.04,0,.09-.03.12-.07.06-.08.09-.11.17-.14h0s.08.02.1.03Z" fill="#fdd000" stroke-width="0"/>
      <path d="m20.99,5.48c.06.08.05.13.03.17-.01.04-.03.08-.13.11-.03,0-.05.02-.08.03-.06-.04-.22-.16-.37-.26,0-.02.02-.03.02-.05l.37.13s.02,0,.03-.01c0-.01,0-.02-.01-.03l-.37-.12s.01-.04.01-.06c.18,0,.38.02.45.02,0,.02.02.05.04.07Z" fill="#fdd000" stroke-width="0"/>
      <path d="m20.89,5.13s.05.06.05.11c0,.05,0,.09,0,.13-.08,0-.26-.01-.44-.02,0-.01,0-.02,0-.04,0,0,0-.02,0-.03l.27-.03s.01,0,.01,0c0,0,0,0,0-.01,0,0,0,0,0-.01,0,0,0,0,0,0,0,0,0,0,0,0l-.27.04s0-.04-.01-.06l.28-.08s.08,0,.11.01Z" fill="#fdd000" stroke-width="0"/>
      <path d="m20.83,4.87s.03.08.02.12c-.01.04-.05.06-.09.07l-.27.09s-.02-.04-.02-.06l.25-.12s0,0,0,0c0,0,0,0,0,0,0,0,0-.01,0-.01,0,0,0,0-.01-.01,0,0-.01,0-.02,0l-.25.12s-.02-.04-.04-.05c.14-.1.29-.21.35-.26.01.04.04.07.07.11Z" fill="#fdd000" stroke-width="0"/>
      <path d="m20.42,4.47s.05,0,.08-.01c.1-.03.14,0,.17.02.03.03.07.06.06.16,0,.03,0,.06,0,.08-.06.04-.22.16-.36.27-.01-.01-.03-.03-.04-.04l.24-.31s0-.02,0-.03c0,0-.02,0-.03,0l-.23.31s-.03-.02-.05-.03c.06-.17.14-.36.16-.42Z" fill="#fdd000" stroke-width="0"/>
      <path d="m20.09,4.55s.02-.08.05-.1c.03-.02.07-.03.12-.01.05.02.09.03.13.03-.03.07-.09.25-.15.41-.02,0-.04-.02-.06-.02l.05-.27s0-.01,0-.01c0,0,0,0-.01,0,0,0-.01,0-.01,0,0,0,0,0,0,0,0,0,0,0,0,0l-.05.27s-.04,0-.06,0v-.29Z" fill="#fdd000" stroke-width="0"/>
      <path d="m20.03,6.18s.02,0,.02-.02v-.39s.04,0,.06,0c.05.18.1.37.12.44-.02.02-.04.03-.06.06-.06.08-.11.08-.15.08-.04,0-.09,0-.15-.09-.02-.03-.04-.05-.06-.06.02-.07.08-.26.14-.43.02,0,.04,0,.06,0v.39s0,.02,0,.02Z" fill="#fdd000" stroke-width="0"/>
      <path d="m19.87,4.43s.08,0,.12.02c.03.02.04.06.04.1v.29s-.04,0-.06,0l-.03-.27s0,0,0,0c0,0,0,0,0,0,0,0,0,0-.01,0,0,0,0,0-.01,0,0,0,0,0,0,.01l.04.27s-.04.01-.06.02c-.05-.16-.11-.34-.13-.42.04,0,.08-.01.13-.03Z" fill="#fdd000" stroke-width="0"/>
      <path d="m19.38,4.61c0-.1.04-.13.07-.16.04-.02.07-.05.17-.01.03.01.06.02.08.02.02.07.09.26.14.43-.02,0-.04.02-.05.03l-.22-.32s-.02-.01-.03,0c0,0-.01.02,0,.03l.23.32s-.03.02-.04.04c-.14-.11-.3-.24-.35-.28,0-.02.01-.05.01-.08Z" fill="#fdd000" stroke-width="0"/>
      <path d="m19.29,4.84s.06-.08.07-.11c.06.05.21.16.34.27-.01.02-.03.03-.04.05l-.24-.13s-.01,0-.01,0c0,0,0,0-.01,0,0,0,0,0,0,.01,0,0,0,0,0,0,0,0,0,0,0,0l.24.13s-.02.04-.03.05l-.27-.1s-.07-.04-.08-.08c-.01-.04,0-.08.02-.12Z" fill="#fdd000" stroke-width="0"/>
      <path d="m19.16,5.2s.02-.08.05-.11c.03-.02.07-.02.11,0l.27.09s0,.04-.01.06l-.27-.05s0,0,0,0c0,0,0,0,0,0,0,0,0,0,0,.01,0,0,0,.01,0,.02,0,0,0,0,.01,0l.27.04s0,.02,0,.03c0,.01,0,.02,0,.04-.17,0-.36,0-.44,0,0-.04.01-.08.01-.13Z" fill="#fdd000" stroke-width="0"/>
      <path d="m19.09,5.44s.03-.05.04-.07c.07,0,.27,0,.45,0,0,.02,0,.04.01.06l-.38.11s-.02.02-.01.03c0,.01.02.02.03.01l.37-.12s.01.04.02.05c-.15.1-.32.21-.38.25-.02-.01-.05-.03-.07-.04-.1-.03-.11-.07-.13-.12s-.02-.08.04-.17Z" fill="#fdd000" stroke-width="0"/>
      <path d="m19.16,5.77s0,0,0,0c.08.03.11.06.17.14.03.04.07.07.11.08,0,.02,0,.05.01.07-.04-.02-.08-.02-.11-.02-.03-.05-.13-.19-.29-.25.02-.01.06-.02.1-.03Z" fill="#fdd000" stroke-width="0"/>
      <path d="m18.88,5.82c.22-.02.38.17.42.24-.02,0-.03.01-.03.02-.05-.01-.09,0-.13.01-.05-.05-.18-.18-.37-.21.03-.03.07-.05.11-.06Z" fill="#fdd000" stroke-width="0"/>
      <path d="m18.77,5.93c.17.03.29.14.33.18-.01,0-.02.02-.03.03-.06,0-.1,0-.14.02-.06-.04-.23-.14-.44-.14.06-.08.15-.11.28-.09Z" fill="#fdd000" stroke-width="0"/>
      <path d="m18.45,6.06c.22,0,.39.09.45.12-.03.03-.04.05-.04.06-.04,0-.08.02-.1.03-.03-.01-.3-.12-.6-.06.05-.1.15-.15.3-.15Z" fill="#fdd000" stroke-width="0"/>
      <path d="m18.03,6.29c.29-.1.59-.02.68,0-.04.04-.06.08-.06.09-.02,0-.04.02-.06.03-.23-.03-.54-.01-.79.11.01-.12.1-.2.22-.24Z" fill="#fdd000" stroke-width="0"/>
      <path d="m17.76,6.62c.23-.15.56-.18.79-.16-.03.04-.05.09-.06.13-.26.02-.65.12-.89.3,0-.06,0-.18.15-.28Z" fill="#fdd000" stroke-width="0"/>
      <path d="m17.59,6.96c.21-.17.58-.3.86-.33-.06.06-.07.13-.08.15-.42.12-.74.33-.88.45-.02-.06-.03-.17.1-.28Z" fill="#fdd000" stroke-width="0"/>
      <path d="m17.47,7.32c.15-.14.64-.5,1.33-.57l.04.09c-.52.03-1.09.3-1.42.63-.01-.03,0-.1.05-.15Z" fill="#fdd000" stroke-width="0"/>
    </g>
    <path d="m19.76,5.35c.09.06.22.04.29-.05.07-.09.19-.12.29-.05.09.07.12.19.05.29h0c.04-.06.07-.14.07-.23,0-.23-.18-.42-.4-.42-.14,0-.27.07-.35.18h0c-.07.09-.04.22.05.29Z" fill="#00479d" stroke-width="0"/>
    <path d="m20.04,5.71c.14,0,.27-.07.35-.18h0c.07-.09.04-.22-.05-.29-.09-.06-.22-.04-.29.05-.07.09-.19.12-.29.05-.09-.07-.12-.19-.05-.29h0c-.04.06-.07.14-.07.23,0,.23.18.42.4.42Z" fill="#e60020" stroke-width="0"/>
    <g>
      <path d="m20.56,4.22c.14,0,.26-.11.26-.25s-.11-.26-.25-.26c-.14,0-.26.11-.26.25s.11.26.25.26Zm0-.41c.08,0,.14.07.14.16s-.07.15-.15.15c-.08,0-.14-.07-.14-.16s.07-.15.15-.15Z" fill="#fff" stroke-width="0"/>
      <polygon points="19.99 3.71 19.99 3.81 20.15 3.81 20.14 4.21 20.25 4.21 20.26 3.72 19.99 3.71" fill="#fff" stroke-width="0"/>
      <rect x="19.6" y="3.9" width=".49" height=".11" transform="translate(15.48 23.72) rotate(-88.82)" fill="#fff" stroke-width="0"/>
      <polygon points="19.23 4.19 19.24 3.7 18.94 3.69 18.94 3.79 19.13 3.79 19.13 3.89 18.95 3.89 18.95 3.99 19.13 3.99 19.12 4.09 18.94 4.09 18.94 4.18 19.23 4.19" fill="#fff" stroke-width="0"/>
      <path d="m21.2,4.23v-.49s-.1,0-.1,0v.14s-.06,0-.06,0c-.1,0-.18.08-.18.17,0,.1.08.18.17.18h.17Zm-.15-.26h.05s0,.16,0,.16h-.05s-.08-.04-.08-.08c0-.05.04-.08.08-.08Z" fill="#fff" stroke-width="0"/>
      <path d="m19.48,4.1s-.09-.03-.11-.06l-.08.06c.04.06.1.1.19.1.14,0,.26-.11.26-.25,0-.14-.11-.26-.25-.26-.08,0-.15.04-.19.09l.08.07s.06-.06.11-.06c.08,0,.14.07.14.16s-.07.15-.15.15Z" fill="#fff" stroke-width="0"/>
    </g>
  </g>
</svg>