<svg xmlns="http://www.w3.org/2000/svg" xmlns:xlink="http://www.w3.org/1999/xlink" width="240" height="72" viewBox="0 0 240 72">
  <defs>
    <linearGradient id="linear-gradient" x1="0.5" x2="0.5" y2="1" gradientUnits="objectBoundingBox">
      <stop offset="0" stop-color="#2f2f2f"/>
      <stop offset="1" stop-color="#191919"/>
    </linearGradient>
    <clipPath id="clip-path">
      <rect id="Rectangle_3278" data-name="Rectangle 3278" width="35.553" height="25.394" fill="none"/>
    </clipPath>
    <clipPath id="clip-path-2">
      <rect id="Rectangle_3277" data-name="Rectangle 3277" width="35.552" height="25.354" fill="none"/>
    </clipPath>
    <clipPath id="clip-path-3">
      <rect id="Rectangle_3280" data-name="Rectangle 3280" width="35.499" height="25.284" fill="none"/>
    </clipPath>
    <clipPath id="clip-path-4">
      <rect id="Rectangle_3279" data-name="Rectangle 3279" width="35.488" height="25.223" fill="none"/>
    </clipPath>
    <clipPath id="clip-path-5">
      <rect id="Rectangle_3282" data-name="Rectangle 3282" width="36.414" height="31.922" fill="none"/>
    </clipPath>
    <clipPath id="clip-path-6">
      <rect id="Rectangle_3281" data-name="Rectangle 3281" width="36.411" height="31.851" fill="none"/>
    </clipPath>
    <clipPath id="clip-path-7">
      <rect id="Rectangle_3269" data-name="Rectangle 3269" width="36.414" height="31.923" fill="none"/>
    </clipPath>
    <clipPath id="clip-path-8">
      <rect id="Rectangle_3270" data-name="Rectangle 3270" width="36.5" height="36.5" fill="none"/>
    </clipPath>
    <clipPath id="clip-path-11">
      <rect id="Rectangle_3274" data-name="Rectangle 3274" width="35.498" height="25.285" fill="none"/>
    </clipPath>
    <clipPath id="clip-path-18">
      <rect id="Rectangle_3287" data-name="Rectangle 3287" width="35.507" height="25.285" fill="none"/>
    </clipPath>
  </defs>
  <g id="Group_6215" data-name="Group 6215" transform="translate(-873 -470)">
    <rect id="Rectangle_4909" data-name="Rectangle 4909" width="240" height="72" rx="8" transform="translate(873 470)" fill="url(#linear-gradient)"/>
    <g id="Group_6210" data-name="Group 6210" transform="translate(1001 486)">
      <path id="Path_5134" data-name="Path 5134" d="M83.995,19.955A20,20,0,1,1,63.95,0h.045a19.978,19.978,0,0,1,20,19.955" transform="translate(-43.995 0)" fill="#484e60"/>
      <path id="Path_5135" data-name="Path 5135" d="M81.2,18.918A18.25,18.25,0,1,1,62.917.705h.037A18.231,18.231,0,0,1,81.2,18.918" transform="translate(-42.949 1.04)" fill="#3f454f"/>
      <g id="Group_4929" data-name="Group 4929" transform="translate(2.702 12.814)" opacity="0.46">
        <g id="Group_4928" data-name="Group 4928" transform="translate(0 0)">
          <g id="Group_4927" data-name="Group 4927" clip-path="url(#clip-path)">
            <g id="Group_4926" data-name="Group 4926" transform="translate(-0.001)">
              <g id="Group_4925" data-name="Group 4925" clip-path="url(#clip-path-2)">
                <path id="Path_5136" data-name="Path 5136" d="M79.18,5.177A18.252,18.252,0,0,1,45.086,18.132,18.25,18.25,0,0,0,79.682,6.5c-.151-.448-.317-.889-.5-1.324" transform="translate(-45.086 -5.177)" fill="#49525e"/>
              </g>
            </g>
          </g>
        </g>
      </g>
      <g id="Group_4934" data-name="Group 4934" transform="translate(1.741 1.684)" opacity="0.47">
        <g id="Group_4933" data-name="Group 4933" transform="translate(0 0)">
          <g id="Group_4932" data-name="Group 4932" clip-path="url(#clip-path-3)">
            <g id="Group_4931" data-name="Group 4931" transform="translate(0.011 0.061)">
              <g id="Group_4930" data-name="Group 4930" clip-path="url(#clip-path-4)">
                <path id="Path_5137" data-name="Path 5137" d="M45.1,19.965a18.26,18.26,0,0,1,35.1-7.01A18.25,18.25,0,0,0,45.71,24.915c.124.354.257.7.4,1.05a18.141,18.141,0,0,1-1.015-6" transform="translate(-44.71 -0.742)" fill="#2c333d"/>
              </g>
            </g>
          </g>
        </g>
      </g>
      <g id="Group_4939" data-name="Group 4939" transform="translate(1.753 1.664)" opacity="0.25">
        <g id="Group_4938" data-name="Group 4938" transform="translate(0 0)">
          <g id="Group_4937" data-name="Group 4937" clip-path="url(#clip-path-5)">
            <g id="Group_4936" data-name="Group 4936" transform="translate(0 0.071)">
              <g id="Group_4935" data-name="Group 4935" clip-path="url(#clip-path-6)">
                <path id="Path_5138" data-name="Path 5138" d="M50.773,30.781A18.257,18.257,0,0,1,81.117,17.142,18.251,18.251,0,1,0,50.865,32.595c-.059-.6-.089-1.2-.089-1.814" transform="translate(-44.704 -0.744)" fill="#272b35"/>
              </g>
            </g>
          </g>
        </g>
      </g>
      <path id="Path_5139" data-name="Path 5139" d="M50.217,13.1a1.223,1.223,0,1,0,.946-1.448h0a1.223,1.223,0,0,0-.943,1.448" transform="translate(-34.855 17.152)" fill="#232833"/>
      <path id="Path_5140" data-name="Path 5140" d="M50.217,11.795a1.223,1.223,0,1,0,.946-1.448h0a1.223,1.223,0,0,0-.943,1.448" transform="translate(-34.855 15.225)" fill="#232833"/>
      <path id="Path_5141" data-name="Path 5141" d="M50.217,10.49a1.223,1.223,0,1,0,.946-1.448h0a1.223,1.223,0,0,0-.943,1.448" transform="translate(-34.855 13.3)" fill="#232833"/>
      <path id="Path_5142" data-name="Path 5142" d="M50.217,9.184a1.223,1.223,0,1,0,.946-1.448h0a1.223,1.223,0,0,0-.943,1.448" transform="translate(-34.855 11.373)" fill="#232833"/>
      <path id="Path_5143" data-name="Path 5143" d="M50.217,7.878a1.223,1.223,0,1,0,.946-1.448h0a1.223,1.223,0,0,0-.943,1.448" transform="translate(-34.855 9.447)" fill="#232833"/>
      <path id="Path_5144" data-name="Path 5144" d="M51.62,10.49a1.223,1.223,0,1,0,.946-1.448h0a1.223,1.223,0,0,0-.943,1.448" transform="translate(-32.786 13.3)" fill="#232833"/>
      <path id="Path_5145" data-name="Path 5145" d="M51.62,9.184a1.223,1.223,0,1,0,.946-1.448h0a1.223,1.223,0,0,0-.943,1.448" transform="translate(-32.786 11.373)" fill="#232833"/>
      <path id="Path_5146" data-name="Path 5146" d="M51.62,7.878a1.223,1.223,0,1,0,.946-1.448h0a1.223,1.223,0,0,0-.943,1.448" transform="translate(-32.786 9.447)" fill="#232833"/>
      <path id="Path_5147" data-name="Path 5147" d="M53.021,10.49a1.223,1.223,0,1,0,.946-1.448h0a1.223,1.223,0,0,0-.943,1.448" transform="translate(-30.719 13.3)" fill="#232833"/>
      <path id="Path_5148" data-name="Path 5148" d="M53.021,9.184a1.223,1.223,0,1,0,.946-1.448h0a1.223,1.223,0,0,0-.943,1.448" transform="translate(-30.719 11.373)" fill="#232833"/>
      <path id="Path_5149" data-name="Path 5149" d="M53.021,7.878a1.223,1.223,0,1,0,.946-1.448h0a1.223,1.223,0,0,0-.943,1.448" transform="translate(-30.719 9.447)" fill="#232833"/>
      <path id="Path_5150" data-name="Path 5150" d="M54.424,10.49a1.223,1.223,0,1,0,.946-1.448h0a1.223,1.223,0,0,0-.943,1.448" transform="translate(-28.649 13.3)" fill="#232833"/>
      <path id="Path_5151" data-name="Path 5151" d="M54.424,9.184a1.223,1.223,0,1,0,.946-1.448h0a1.223,1.223,0,0,0-.943,1.448" transform="translate(-28.649 11.373)" fill="#232833"/>
      <path id="Path_5152" data-name="Path 5152" d="M54.424,7.878a1.223,1.223,0,1,0,.946-1.448h0a1.223,1.223,0,0,0-.943,1.448" transform="translate(-28.649 9.447)" fill="#232833"/>
      <path id="Path_5153" data-name="Path 5153" d="M55.827,10.49a1.223,1.223,0,1,0,.946-1.448h0a1.223,1.223,0,0,0-.943,1.448" transform="translate(-26.579 13.3)" fill="#232833"/>
      <path id="Path_5154" data-name="Path 5154" d="M55.827,9.184a1.223,1.223,0,1,0,.946-1.448h0a1.223,1.223,0,0,0-.943,1.448" transform="translate(-26.579 11.373)" fill="#232833"/>
      <path id="Path_5155" data-name="Path 5155" d="M55.827,7.878a1.223,1.223,0,1,0,.946-1.448h0a1.223,1.223,0,0,0-.943,1.448" transform="translate(-26.579 9.447)" fill="#232833"/>
      <path id="Path_5156" data-name="Path 5156" d="M57.228,10.49a1.223,1.223,0,1,0,.946-1.448h0a1.223,1.223,0,0,0-.943,1.448" transform="translate(-24.512 13.3)" fill="#232833"/>
      <path id="Path_5157" data-name="Path 5157" d="M57.228,9.184a1.223,1.223,0,1,0,.946-1.448h0a1.223,1.223,0,0,0-.943,1.448" transform="translate(-24.512 11.373)" fill="#232833"/>
      <path id="Path_5158" data-name="Path 5158" d="M57.228,7.878a1.223,1.223,0,1,0,.946-1.448h0a1.223,1.223,0,0,0-.943,1.448" transform="translate(-24.512 9.447)" fill="#232833"/>
      <path id="Path_5159" data-name="Path 5159" d="M50.217,6.573a1.223,1.223,0,1,0,.946-1.448h0a1.223,1.223,0,0,0-.943,1.448" transform="translate(-34.855 7.521)" fill="#232833"/>
      <path id="Path_5160" data-name="Path 5160" d="M48.815,11.795a1.223,1.223,0,1,0,.946-1.448h0a1.223,1.223,0,0,0-.943,1.448" transform="translate(-36.924 15.225)" fill="#232833"/>
      <path id="Path_5161" data-name="Path 5161" d="M48.815,10.49a1.223,1.223,0,1,0,.946-1.448h0a1.223,1.223,0,0,0-.943,1.448" transform="translate(-36.924 13.3)" fill="#232833"/>
      <path id="Path_5162" data-name="Path 5162" d="M48.815,9.184a1.223,1.223,0,1,0,.946-1.448h0a1.223,1.223,0,0,0-.943,1.448" transform="translate(-36.924 11.373)" fill="#232833"/>
      <path id="Path_5163" data-name="Path 5163" d="M48.815,7.878A1.223,1.223,0,1,0,49.76,6.43h0a1.223,1.223,0,0,0-.943,1.448" transform="translate(-36.924 9.447)" fill="#232833"/>
      <path id="Path_5164" data-name="Path 5164" d="M47.413,10.49a1.223,1.223,0,1,0,.946-1.448h0a1.223,1.223,0,0,0-.943,1.448" transform="translate(-38.992 13.3)" fill="#232833"/>
      <path id="Path_5165" data-name="Path 5165" d="M47.413,9.184a1.223,1.223,0,1,0,.946-1.448h0a1.223,1.223,0,0,0-.943,1.448" transform="translate(-38.992 11.373)" fill="#232833"/>
      <path id="Path_5166" data-name="Path 5166" d="M46.011,9.184a1.223,1.223,0,1,0,.946-1.448h0a1.223,1.223,0,0,0-.943,1.448" transform="translate(-41.06 11.373)" fill="#232833"/>
      <path id="Path_5167" data-name="Path 5167" d="M47.413,7.878a1.223,1.223,0,1,0,.946-1.448h0a1.223,1.223,0,0,0-.943,1.448" transform="translate(-38.992 9.447)" fill="#232833"/>
      <path id="Path_5168" data-name="Path 5168" d="M48.815,6.573a1.223,1.223,0,1,0,.946-1.448h0a1.223,1.223,0,0,0-.943,1.448" transform="translate(-36.924 7.521)" fill="#232833"/>
      <path id="Path_5169" data-name="Path 5169" d="M50.217,5.267a1.223,1.223,0,1,0,.946-1.448h0a1.223,1.223,0,0,0-.943,1.448" transform="translate(-34.855 5.595)" fill="#232833"/>
    </g>
    <g id="Group_6206" data-name="Group 6206" transform="translate(1057 486)">
      <path id="Path_5030" data-name="Path 5030" d="M105.993,19.989A20,20,0,1,1,85.948.034h.045a19.978,19.978,0,0,1,20,19.955" transform="translate(-65.993 -0.034)" fill="#bababa"/>
      <path id="Path_5031" data-name="Path 5031" d="M103.2,18.952A18.25,18.25,0,1,1,84.914.739h.037A18.231,18.231,0,0,1,103.2,18.952" transform="translate(-64.948 1.006)" fill="#40ff06"/>
      <path id="Path_5032" data-name="Path 5032" d="M67.093,20a18.26,18.26,0,0,1,35.1-7.01,18.25,18.25,0,0,0-34.485,11.96c.124.354.257.7.4,1.05a18.14,18.14,0,0,1-1.015-6" transform="translate(-64.957 0.969)" fill="#069641"/>
      <path id="Path_5033" data-name="Path 5033" d="M75.075,10.216a1.329,1.329,0,1,0-1.332-1.329,1.328,1.328,0,0,0,1.332,1.329Z" transform="translate(-54.56 11.066)" fill="#caff55"/>
      <path id="Path_5034" data-name="Path 5034" d="M74.984,9.134a1.329,1.329,0,1,0,.8,1.7,1.328,1.328,0,0,0-.8-1.7" transform="translate(-55.35 13.276)" fill="#caff55"/>
      <path id="Path_5035" data-name="Path 5035" d="M73.267,7.865a1.329,1.329,0,1,0,1.547,1.069,1.33,1.33,0,0,0-1.547-1.069" transform="translate(-56.871 11.487)" fill="#caff55"/>
      <path id="Path_5036" data-name="Path 5036" d="M74.9,8.689a1.508,1.508,0,1,0-.007,0l.007,0" transform="translate(-56.079 9.278)" fill="#caff55"/>
      <path id="Path_5037" data-name="Path 5037" d="M75.162,8.642a1.329,1.329,0,1,0-.8-1.7,1.328,1.328,0,0,0,.8,1.7" transform="translate(-53.766 8.858)" fill="#caff55"/>
      <path id="Path_5038" data-name="Path 5038" d="M77.953,8.371a1.331,1.331,0,1,0-1.077,1.545h0a1.331,1.331,0,0,0,1.072-1.545" transform="translate(-52.247 10.646)" fill="#caff55"/>
      <path id="Path_5039" data-name="Path 5039" d="M76.964,11.115a1.509,1.509,0,1,0-.007,0l.007,0" transform="translate(-53.038 12.857)" fill="#caff55"/>
      <path id="Path_5040" data-name="Path 5040" d="M74.524,10.543a1.329,1.329,0,1,0,.844,1.681v0a1.333,1.333,0,0,0-.844-1.678" transform="translate(-55.986 15.37)" fill="#caff55"/>
      <path id="Path_5041" data-name="Path 5041" d="M71.787,8.209a1.329,1.329,0,1,0,1.574,1.032,1.332,1.332,0,0,0-1.574-1.032h0" transform="translate(-59.005 11.985)" fill="#caff55"/>
      <path id="Path_5042" data-name="Path 5042" d="M72.031,7.477A1.329,1.329,0,1,0,72.14,5.6a1.328,1.328,0,0,0-.109,1.876" transform="translate(-57.578 7.682)" fill="#caff55"/>
      <path id="Path_5043" data-name="Path 5043" d="M75.623,7.233a1.329,1.329,0,1,0-.844-1.681v0a1.333,1.333,0,0,0,.844,1.678" transform="translate(-53.13 6.764)" fill="#caff55"/>
      <path id="Path_5044" data-name="Path 5044" d="M79.394,8a1.331,1.331,0,1,0-1.04,1.569h0A1.332,1.332,0,0,0,79.394,8" transform="translate(-50.112 10.147)" fill="#caff55"/>
      <path id="Path_5045" data-name="Path 5045" d="M78.114,10.3A1.329,1.329,0,1,0,78,12.176a1.328,1.328,0,0,0,.109-1.876" transform="translate(-51.537 14.453)" fill="#caff55"/>
      <path id="Path_5046" data-name="Path 5046" d="M73.68,11.933a1.266,1.266,0,1,0-.007.007l.007-.007" transform="translate(-57.93 14.106)" fill="#caff55"/>
      <path id="Path_5047" data-name="Path 5047" d="M72.553,6.678a1.329,1.329,0,1,0,.856,1.673,1.33,1.33,0,0,0-.856-1.673" transform="translate(-58.879 9.673)" fill="#caff55"/>
      <path id="Path_5048" data-name="Path 5048" d="M74.149,4.585A1.33,1.33,0,1,0,75.73,5.6a1.33,1.33,0,0,0-1.582-1.02h0" transform="translate(-55.507 6.635)" fill="#caff55"/>
      <path id="Path_5049" data-name="Path 5049" d="M76.466,5.845a1.263,1.263,0,1,0,.007-.007l-.007.007" transform="translate(-51.188 8.029)" fill="#caff55"/>
      <path id="Path_5050" data-name="Path 5050" d="M78.412,8.568a1.329,1.329,0,1,0,.856,1.673,1.33,1.33,0,0,0-.856-1.673" transform="translate(-50.236 12.461)" fill="#caff55"/>
      <path id="Path_5051" data-name="Path 5051" d="M76,13.2a1.33,1.33,0,1,0-1.582-1.02A1.33,1.33,0,0,0,76,13.2h0" transform="translate(-53.608 15.506)" fill="#caff55"/>
      <path id="Path_5052" data-name="Path 5052" d="M74.1,11.865a1.329,1.329,0,1,0,.854,1.676v0a1.332,1.332,0,0,0-.854-1.673" transform="translate(-56.595 17.323)" fill="#caff55"/>
      <path id="Path_5053" data-name="Path 5053" d="M70.981,11.115A1.329,1.329,0,1,0,69.4,10.092a1.329,1.329,0,0,0,1.579,1.022h0" transform="translate(-61.008 12.435)" fill="#caff55"/>
      <path id="Path_5054" data-name="Path 5054" d="M71.094,6.466a1.329,1.329,0,1,0,.1-1.876,1.325,1.325,0,0,0-.1,1.876" transform="translate(-58.967 6.182)" fill="#caff55"/>
      <path id="Path_5055" data-name="Path 5055" d="M76.042,5.913a1.329,1.329,0,1,0-.854-1.676v0a1.332,1.332,0,0,0,.854,1.673" transform="translate(-52.522 4.813)" fill="#caff55"/>
      <path id="Path_5056" data-name="Path 5056" d="M79.165,6.662a1.329,1.329,0,1,0,1.579,1.022,1.329,1.329,0,0,0-1.579-1.022h0" transform="translate(-48.11 9.7)" fill="#caff55"/>
      <path id="Path_5057" data-name="Path 5057" d="M79.051,11.313a1.329,1.329,0,1,0-.1,1.876,1.325,1.325,0,0,0,.1-1.876" transform="translate(-50.148 15.954)" fill="#caff55"/>
      <path id="Path_5058" data-name="Path 5058" d="M70.867,10.9a1.267,1.267,0,1,0,.007-.007l-.007.007" transform="translate(-59.446 15.479)" fill="#caff55"/>
      <path id="Path_5059" data-name="Path 5059" d="M70.413,8.789a1.329,1.329,0,1,0-.859-1.673v0a1.331,1.331,0,0,0,.859,1.671" transform="translate(-60.833 9.055)" fill="#caff55"/>
      <path id="Path_5060" data-name="Path 5060" d="M73.853,3.234a1.33,1.33,0,1,0,1.582,1.02,1.33,1.33,0,0,0-1.582-1.02h0" transform="translate(-55.944 4.642)" fill="#caff55"/>
      <path id="Path_5061" data-name="Path 5061" d="M79.279,6.883a1.266,1.266,0,1,0-.007.007Z" transform="translate(-49.672 6.659)" fill="#caff55"/>
      <path id="Path_5062" data-name="Path 5062" d="M79.734,8.991a1.329,1.329,0,1,0,.859,1.673v0a1.331,1.331,0,0,0-.859-1.671" transform="translate(-48.283 13.085)" fill="#caff55"/>
      <path id="Path_5063" data-name="Path 5063" d="M76.289,14.546a1.33,1.33,0,1,0-1.582-1.02,1.33,1.33,0,0,0,1.582,1.02h0" transform="translate(-53.18 17.496)" fill="#caff55"/>
      <path id="Path_5064" data-name="Path 5064" d="M73.712,13.22a1.33,1.33,0,1,0,.874,1.666,1.329,1.329,0,0,0-.874-1.666" transform="translate(-57.147 19.329)" fill="#caff55"/>
      <path id="Path_5065" data-name="Path 5065" d="M69.042,8.873a1.33,1.33,0,1,0,1.589,1.007,1.33,1.33,0,0,0-1.589-1.007h0" transform="translate(-63.025 12.958)" fill="#caff55"/>
      <path id="Path_5066" data-name="Path 5066" d="M71.994,5.548a1.274,1.274,0,1,0-.007.007l.007-.007" transform="translate(-60.431 4.697)" fill="#caff55"/>
      <path id="Path_5067" data-name="Path 5067" d="M76.434,4.559a1.33,1.33,0,1,0-.874-1.666,1.329,1.329,0,0,0,.874,1.666" transform="translate(-51.968 2.805)" fill="#caff55"/>
      <path id="Path_5068" data-name="Path 5068" d="M81.1,8.9A1.33,1.33,0,1,0,79.514,7.9,1.33,1.33,0,0,0,81.1,8.9h0" transform="translate(-46.093 9.176)" fill="#caff55"/>
      <path id="Path_5069" data-name="Path 5069" d="M78.153,12.231a1.273,1.273,0,1,0,.007-.007l-.007.007" transform="translate(-48.685 17.438)" fill="#caff55"/>
      <path id="Path_5070" data-name="Path 5070" d="M69.825,11.853a1.268,1.268,0,1,0,.007-.007l-.007.007" transform="translate(-60.978 16.887)" fill="#caff55"/>
      <path id="Path_5071" data-name="Path 5071" d="M69.877,5.835a1.329,1.329,0,1,0,.861,1.671,1.331,1.331,0,0,0-.861-1.671" transform="translate(-62.82 8.43)" fill="#caff55"/>
      <path id="Path_5072" data-name="Path 5072" d="M74.109,4.452a1.329,1.329,0,1,0-1.584-1.017,1.328,1.328,0,0,0,1.584,1.017h0" transform="translate(-56.401 2.607)" fill="#caff55"/>
      <path id="Path_5073" data-name="Path 5073" d="M80.322,5.924a1.267,1.267,0,1,0-.007.007l.007-.007" transform="translate(-48.139 5.246)" fill="#caff55"/>
      <path id="Path_5074" data-name="Path 5074" d="M81.079,9.411a1.329,1.329,0,1,0,.861,1.671,1.331,1.331,0,0,0-.861-1.671" transform="translate(-46.295 13.706)" fill="#caff55"/>
      <path id="Path_5075" data-name="Path 5075" d="M76.037,13.324a1.329,1.329,0,1,0,1.584,1.017,1.328,1.328,0,0,0-1.584-1.017Z" transform="translate(-52.715 19.527)" fill="#caff55"/>
      <path id="Path_5076" data-name="Path 5076" d="M101.212,5.263A18.252,18.252,0,0,1,67.118,18.216a18.25,18.25,0,1,0,34.6-11.634c-.151-.446-.317-.889-.5-1.322" transform="translate(-64.333 7.677)" fill="#fff"/>
      <g id="Group_4362" data-name="Group 4362" transform="translate(1.618 1.664)" opacity="0.4" style="mix-blend-mode: multiply;isolation: isolate">
        <g id="Group_4361" data-name="Group 4361">
          <g id="Group_4360" data-name="Group 4360" clip-path="url(#clip-path-7)">
            <path id="Path_5077" data-name="Path 5077" d="M72.717,30.814a18.257,18.257,0,0,1,30.344-13.639A18.251,18.251,0,1,0,72.809,32.629c-.059-.6-.089-1.2-.089-1.814" transform="translate(-66.646 -0.706)" fill="#40ff06"/>
          </g>
        </g>
      </g>
    </g>
    <g id="Group_6208" data-name="Group 6208" transform="translate(945 486)">
      <path id="Path_5085" data-name="Path 5085" d="M62,19.989A20,20,0,1,1,41.953.034H42A19.978,19.978,0,0,1,62,19.989" transform="translate(-21.998 -0.034)" fill="#484e60"/>
      <g id="Group_4909" data-name="Group 4909" transform="translate(1.752 1.745)" opacity="0.2" style="mix-blend-mode: normal;isolation: isolate">
        <g id="Group_4908" data-name="Group 4908" transform="translate(0 0)">
          <g id="Group_4907" data-name="Group 4907" clip-path="url(#clip-path-8)">
            <path id="Path_5086" data-name="Path 5086" d="M59.206,18.952A18.25,18.25,0,1,1,40.919.739h.037a18.231,18.231,0,0,1,18.25,18.213" transform="translate(-22.705 -0.739)" fill="#fd9204"/>
          </g>
        </g>
      </g>
      <g id="Group_4914" data-name="Group 4914" transform="translate(2.7 12.814)" opacity="0.46">
        <g id="Group_4913" data-name="Group 4913" transform="translate(0)">
          <g id="Group_4912" data-name="Group 4912" clip-path="url(#clip-path)">
            <g id="Group_4911" data-name="Group 4911" transform="translate(0.001)">
              <g id="Group_4910" data-name="Group 4910" clip-path="url(#clip-path-2)">
                <path id="Path_5087" data-name="Path 5087" d="M57.183,5.211A18.252,18.252,0,0,1,23.089,18.166a18.25,18.25,0,0,0,34.6-11.631c-.151-.448-.317-.889-.5-1.324" transform="translate(-23.089 -5.211)" fill="#49525e"/>
              </g>
            </g>
          </g>
        </g>
      </g>
      <g id="Group_4919" data-name="Group 4919" transform="translate(1.742 1.683)" opacity="0.47">
        <g id="Group_4918" data-name="Group 4918" transform="translate(0 0)">
          <g id="Group_4917" data-name="Group 4917" clip-path="url(#clip-path-11)">
            <g id="Group_4916" data-name="Group 4916" transform="translate(0.008 0.062)">
              <g id="Group_4915" data-name="Group 4915" clip-path="url(#clip-path-4)">
                <path id="Path_5088" data-name="Path 5088" d="M23.1,20a18.26,18.26,0,0,1,35.1-7.01,18.25,18.25,0,1,0-34.485,11.96c.124.354.257.7.4,1.05A18.141,18.141,0,0,1,23.1,20" transform="translate(-22.709 -0.776)" fill="#2c333d"/>
              </g>
            </g>
          </g>
        </g>
      </g>
      <g id="Group_4924" data-name="Group 4924" transform="translate(2.446 2.397)" opacity="0.25">
        <g id="Group_4923" data-name="Group 4923" transform="translate(0 0)">
          <g id="Group_4922" data-name="Group 4922" clip-path="url(#clip-path-7)">
            <g id="Group_4921" data-name="Group 4921" transform="translate(0.002 0.071)">
              <g id="Group_4920" data-name="Group 4920" clip-path="url(#clip-path-6)">
                <path id="Path_5089" data-name="Path 5089" d="M29.057,31.11A18.257,18.257,0,0,1,59.4,17.472,18.251,18.251,0,1,0,29.149,32.925c-.059-.6-.089-1.2-.089-1.814" transform="translate(-22.988 -1.073)" fill="#272b35"/>
              </g>
            </g>
          </g>
        </g>
      </g>
      <path id="Path_5090" data-name="Path 5090" d="M31.029,10.746A1.329,1.329,0,1,0,29.7,9.417a1.328,1.328,0,0,0,1.332,1.329Z" transform="translate(-10.64 11.848)" fill="#3f454f"/>
      <path id="Path_5091" data-name="Path 5091" d="M30.938,9.664a1.329,1.329,0,1,0,.8,1.7,1.328,1.328,0,0,0-.8-1.7" transform="translate(-11.43 14.058)" fill="#3f454f"/>
      <path id="Path_5092" data-name="Path 5092" d="M29.221,8.395a1.329,1.329,0,1,0,1.547,1.069,1.33,1.33,0,0,0-1.547-1.069" transform="translate(-12.951 12.268)" fill="#3f454f"/>
      <path id="Path_5093" data-name="Path 5093" d="M30.857,9.219a1.508,1.508,0,1,0-.007,0l.007,0" transform="translate(-12.159 10.06)" fill="#3f454f"/>
      <path id="Path_5094" data-name="Path 5094" d="M31.116,9.172a1.329,1.329,0,1,0-.8-1.7,1.328,1.328,0,0,0,.8,1.7" transform="translate(-9.847 9.64)" fill="#3f454f"/>
      <path id="Path_5095" data-name="Path 5095" d="M33.907,8.9a1.331,1.331,0,1,0-1.077,1.545h0A1.331,1.331,0,0,0,33.907,8.9" transform="translate(-8.328 11.428)" fill="#3f454f"/>
      <path id="Path_5096" data-name="Path 5096" d="M32.918,11.645a1.509,1.509,0,1,0-.007,0l.007,0" transform="translate(-9.119 13.639)" fill="#3f454f"/>
      <path id="Path_5097" data-name="Path 5097" d="M30.478,11.073a1.329,1.329,0,1,0,.844,1.681v0a1.333,1.333,0,0,0-.844-1.678" transform="translate(-12.067 16.152)" fill="#3f454f"/>
      <path id="Path_5098" data-name="Path 5098" d="M27.741,8.739a1.329,1.329,0,1,0,1.574,1.032,1.332,1.332,0,0,0-1.574-1.032h0" transform="translate(-15.085 12.766)" fill="#3f454f"/>
      <path id="Path_5099" data-name="Path 5099" d="M27.985,8.007a1.329,1.329,0,1,0,.109-1.876,1.328,1.328,0,0,0-.109,1.876" transform="translate(-13.658 8.463)" fill="#3f454f"/>
      <path id="Path_5100" data-name="Path 5100" d="M31.577,7.763a1.329,1.329,0,1,0-.844-1.681v0a1.333,1.333,0,0,0,.844,1.678" transform="translate(-9.21 7.546)" fill="#3f454f"/>
      <path id="Path_5101" data-name="Path 5101" d="M35.348,8.532a1.331,1.331,0,1,0-1.04,1.569h0a1.332,1.332,0,0,0,1.035-1.569" transform="translate(-6.192 10.929)" fill="#3f454f"/>
      <path id="Path_5102" data-name="Path 5102" d="M34.068,10.83a1.329,1.329,0,1,0-.109,1.876,1.328,1.328,0,0,0,.109-1.876" transform="translate(-7.617 15.235)" fill="#3f454f"/>
      <path id="Path_5103" data-name="Path 5103" d="M29.634,12.463a1.264,1.264,0,1,0-.007.007l.007-.007" transform="translate(-14.01 14.888)" fill="#3f454f"/>
      <path id="Path_5104" data-name="Path 5104" d="M28.507,7.208a1.329,1.329,0,1,0,.856,1.673,1.33,1.33,0,0,0-.856-1.673" transform="translate(-14.96 10.455)" fill="#3f454f"/>
      <path id="Path_5105" data-name="Path 5105" d="M30.1,5.115a1.33,1.33,0,1,0,1.582,1.02A1.33,1.33,0,0,0,30.1,5.115h0" transform="translate(-11.588 7.417)" fill="#3f454f"/>
      <path id="Path_5106" data-name="Path 5106" d="M32.42,6.375a1.264,1.264,0,1,0,.007-.007l-.007.007" transform="translate(-7.269 8.811)" fill="#3f454f"/>
      <path id="Path_5107" data-name="Path 5107" d="M34.366,9.1a1.329,1.329,0,1,0,.856,1.673A1.33,1.33,0,0,0,34.366,9.1" transform="translate(-6.316 13.243)" fill="#3f454f"/>
      <path id="Path_5108" data-name="Path 5108" d="M31.953,13.727a1.33,1.33,0,1,0-1.582-1.02,1.33,1.33,0,0,0,1.582,1.02h0" transform="translate(-9.689 16.288)" fill="#3f454f"/>
      <path id="Path_5109" data-name="Path 5109" d="M30.057,12.4a1.329,1.329,0,1,0,.854,1.676v0a1.332,1.332,0,0,0-.854-1.673" transform="translate(-12.676 18.105)" fill="#3f454f"/>
      <path id="Path_5110" data-name="Path 5110" d="M26.935,11.645a1.329,1.329,0,1,0-1.579-1.022,1.329,1.329,0,0,0,1.579,1.022h0" transform="translate(-17.088 13.217)" fill="#3f454f"/>
      <path id="Path_5111" data-name="Path 5111" d="M27.048,7a1.329,1.329,0,1,0,.1-1.876A1.325,1.325,0,0,0,27.048,7" transform="translate(-15.048 6.964)" fill="#3f454f"/>
      <path id="Path_5112" data-name="Path 5112" d="M32,6.443a1.329,1.329,0,1,0-.854-1.676v0A1.332,1.332,0,0,0,32,6.443" transform="translate(-8.603 5.595)" fill="#3f454f"/>
      <path id="Path_5113" data-name="Path 5113" d="M35.119,7.192A1.329,1.329,0,1,0,36.7,8.214a1.329,1.329,0,0,0-1.579-1.022h0" transform="translate(-4.19 10.482)" fill="#3f454f"/>
      <path id="Path_5114" data-name="Path 5114" d="M35.005,11.843a1.329,1.329,0,1,0-.1,1.876,1.326,1.326,0,0,0,.1-1.876" transform="translate(-6.228 16.736)" fill="#3f454f"/>
      <path id="Path_5115" data-name="Path 5115" d="M26.821,11.427a1.265,1.265,0,1,0,.007-.007l-.007.007" transform="translate(-15.526 16.261)" fill="#3f454f"/>
      <path id="Path_5116" data-name="Path 5116" d="M26.367,9.319a1.329,1.329,0,1,0-.859-1.673v0a1.331,1.331,0,0,0,.859,1.671" transform="translate(-16.914 9.837)" fill="#3f454f"/>
      <path id="Path_5117" data-name="Path 5117" d="M29.807,3.764a1.33,1.33,0,1,0,1.582,1.02,1.33,1.33,0,0,0-1.582-1.02h0" transform="translate(-12.024 5.424)" fill="#3f454f"/>
      <path id="Path_5118" data-name="Path 5118" d="M35.233,7.413a1.266,1.266,0,1,0-.007.007Z" transform="translate(-5.753 7.441)" fill="#3f454f"/>
      <path id="Path_5119" data-name="Path 5119" d="M35.688,9.521a1.329,1.329,0,1,0,.859,1.673v0a1.331,1.331,0,0,0-.859-1.671" transform="translate(-4.364 13.867)" fill="#3f454f"/>
      <path id="Path_5120" data-name="Path 5120" d="M32.243,15.076a1.33,1.33,0,1,0-1.582-1.02,1.33,1.33,0,0,0,1.582,1.02h0" transform="translate(-9.261 18.278)" fill="#3f454f"/>
      <path id="Path_5121" data-name="Path 5121" d="M29.666,13.75a1.33,1.33,0,1,0,.874,1.666,1.329,1.329,0,0,0-.874-1.666" transform="translate(-13.228 20.111)" fill="#3f454f"/>
      <path id="Path_5122" data-name="Path 5122" d="M25,9.4a1.33,1.33,0,1,0,1.589,1.007A1.33,1.33,0,0,0,25,9.4h0" transform="translate(-19.105 13.74)" fill="#3f454f"/>
      <path id="Path_5123" data-name="Path 5123" d="M27.948,6.078a1.274,1.274,0,1,0-.007.007l.007-.007" transform="translate(-16.512 5.479)" fill="#3f454f"/>
      <path id="Path_5124" data-name="Path 5124" d="M32.388,5.089a1.33,1.33,0,1,0-.874-1.666,1.329,1.329,0,0,0,.874,1.666" transform="translate(-8.049 3.587)" fill="#3f454f"/>
      <path id="Path_5125" data-name="Path 5125" d="M37.057,9.433a1.33,1.33,0,1,0-1.589-1.007,1.33,1.33,0,0,0,1.589,1.007h0" transform="translate(-2.173 9.958)" fill="#3f454f"/>
      <path id="Path_5126" data-name="Path 5126" d="M34.107,12.761a1.274,1.274,0,1,0,.007-.007l-.007.007" transform="translate(-4.766 18.219)" fill="#3f454f"/>
      <path id="Path_5127" data-name="Path 5127" d="M25.779,12.383a1.268,1.268,0,1,0,.007-.007l-.007.007" transform="translate(-17.058 17.669)" fill="#3f454f"/>
      <path id="Path_5128" data-name="Path 5128" d="M25.831,6.365a1.329,1.329,0,1,0,.861,1.671,1.331,1.331,0,0,0-.861-1.671" transform="translate(-18.901 9.212)" fill="#3f454f"/>
      <path id="Path_5129" data-name="Path 5129" d="M30.063,4.982a1.329,1.329,0,1,0-1.584-1.017,1.328,1.328,0,0,0,1.584,1.017h0" transform="translate(-12.482 3.389)" fill="#3f454f"/>
      <path id="Path_5130" data-name="Path 5130" d="M36.276,6.454a1.269,1.269,0,1,0-.007.007l.007-.007" transform="translate(-4.219 6.028)" fill="#3f454f"/>
      <path id="Path_5131" data-name="Path 5131" d="M37.033,9.941a1.329,1.329,0,1,0,.861,1.671,1.331,1.331,0,0,0-.861-1.671" transform="translate(-2.375 14.488)" fill="#3f454f"/>
      <path id="Path_5132" data-name="Path 5132" d="M31.991,13.854a1.329,1.329,0,1,0,1.584,1.017,1.328,1.328,0,0,0-1.584-1.017Z" transform="translate(-8.796 20.309)" fill="#3f454f"/>
    </g>
    <g id="Group_6209" data-name="Group 6209" transform="translate(889 486)">
      <path id="Path_5171" data-name="Path 5171" d="M40,19.989A20,20,0,1,1,19.955.034H20A19.978,19.978,0,0,1,40,19.989" transform="translate(0 -0.034)" fill="#484e60"/>
      <g id="Group_4942" data-name="Group 4942" transform="translate(1.753 1.745)" opacity="0.2" style="mix-blend-mode: normal;isolation: isolate">
        <g id="Group_4941" data-name="Group 4941" transform="translate(0 0)">
          <g id="Group_4940" data-name="Group 4940" clip-path="url(#clip-path-8)">
            <path id="Path_5172" data-name="Path 5172" d="M37.208,18.952A18.25,18.25,0,1,1,18.921.739h.037a18.231,18.231,0,0,1,18.25,18.213" transform="translate(-0.708 -0.739)" fill="red"/>
          </g>
        </g>
      </g>
      <g id="Group_4947" data-name="Group 4947" transform="translate(2.7 12.812)" opacity="0.46">
        <g id="Group_4946" data-name="Group 4946" transform="translate(0 0)">
          <g id="Group_4945" data-name="Group 4945" clip-path="url(#clip-path)">
            <g id="Group_4944" data-name="Group 4944" transform="translate(0 0.002)">
              <g id="Group_4943" data-name="Group 4943" clip-path="url(#clip-path-2)">
                <path id="Path_5173" data-name="Path 5173" d="M35.185,5.212A18.252,18.252,0,0,1,1.091,18.165a18.25,18.25,0,1,0,34.6-11.634c-.151-.446-.317-.889-.5-1.322" transform="translate(-1.091 -5.212)" fill="#49525e"/>
              </g>
            </g>
          </g>
        </g>
      </g>
      <g id="Group_4952" data-name="Group 4952" transform="translate(1.73 1.683)" opacity="0.47">
        <g id="Group_4951" data-name="Group 4951" transform="translate(0 0)">
          <g id="Group_4950" data-name="Group 4950" clip-path="url(#clip-path-18)">
            <g id="Group_4949" data-name="Group 4949" transform="translate(0.02 0.062)">
              <g id="Group_4948" data-name="Group 4948" clip-path="url(#clip-path-4)">
                <path id="Path_5174" data-name="Path 5174" d="M1.1,20a18.26,18.26,0,0,1,35.1-7.01A18.25,18.25,0,0,0,1.711,24.949c.124.354.257.7.4,1.05A18.141,18.141,0,0,1,1.1,20" transform="translate(-0.719 -0.776)" fill="#2c333d"/>
              </g>
            </g>
          </g>
        </g>
      </g>
      <g id="Group_4957" data-name="Group 4957" transform="translate(1.749 1.664)" opacity="0.25">
        <g id="Group_4956" data-name="Group 4956" transform="translate(0 0)">
          <g id="Group_4955" data-name="Group 4955" clip-path="url(#clip-path-5)">
            <g id="Group_4954" data-name="Group 4954" transform="translate(0.001 0.071)">
              <g id="Group_4953" data-name="Group 4953" clip-path="url(#clip-path-6)">
                <path id="Path_5175" data-name="Path 5175" d="M6.777,30.814A18.257,18.257,0,0,1,37.121,17.176,18.251,18.251,0,1,0,6.869,32.629c-.059-.6-.089-1.2-.089-1.814" transform="translate(-0.708 -0.777)" fill="#272b35"/>
              </g>
            </g>
          </g>
        </g>
      </g>
      <path id="Path_5176" data-name="Path 5176" d="M9.047,10.746A1.329,1.329,0,1,0,7.715,9.417a1.328,1.328,0,0,0,1.332,1.329Z" transform="translate(11.382 11.848)" fill="#3f454f"/>
      <path id="Path_5177" data-name="Path 5177" d="M8.956,9.664a1.329,1.329,0,1,0,.8,1.7,1.328,1.328,0,0,0-.8-1.7" transform="translate(10.591 14.058)" fill="#3f454f"/>
      <path id="Path_5178" data-name="Path 5178" d="M7.239,8.395A1.329,1.329,0,1,0,8.786,9.464,1.33,1.33,0,0,0,7.239,8.395" transform="translate(9.07 12.268)" fill="#3f454f"/>
      <path id="Path_5179" data-name="Path 5179" d="M8.875,9.219a1.509,1.509,0,1,0-.007,0l.007,0" transform="translate(9.862 10.06)" fill="#3f454f"/>
      <path id="Path_5180" data-name="Path 5180" d="M9.134,9.172a1.329,1.329,0,1,0-.8-1.7,1.328,1.328,0,0,0,.8,1.7" transform="translate(12.175 9.64)" fill="#3f454f"/>
      <path id="Path_5181" data-name="Path 5181" d="M11.925,8.9a1.331,1.331,0,1,0-1.077,1.545h0A1.331,1.331,0,0,0,11.925,8.9" transform="translate(13.694 11.428)" fill="#3f454f"/>
      <path id="Path_5182" data-name="Path 5182" d="M10.936,11.645a1.509,1.509,0,1,0-.007,0l.007,0" transform="translate(12.903 13.639)" fill="#3f454f"/>
      <path id="Path_5183" data-name="Path 5183" d="M8.5,11.073a1.329,1.329,0,1,0,.844,1.681v0A1.333,1.333,0,0,0,8.5,11.073" transform="translate(9.955 16.152)" fill="#3f454f"/>
      <path id="Path_5184" data-name="Path 5184" d="M5.759,8.739A1.329,1.329,0,1,0,7.334,9.771,1.332,1.332,0,0,0,5.759,8.739h0" transform="translate(6.936 12.766)" fill="#3f454f"/>
      <path id="Path_5185" data-name="Path 5185" d="M6,8.007a1.329,1.329,0,1,0,.109-1.876A1.328,1.328,0,0,0,6,8.007" transform="translate(8.363 8.463)" fill="#3f454f"/>
      <path id="Path_5186" data-name="Path 5186" d="M9.595,7.763a1.329,1.329,0,1,0-.844-1.681v0a1.333,1.333,0,0,0,.844,1.678" transform="translate(12.811 7.546)" fill="#3f454f"/>
      <path id="Path_5187" data-name="Path 5187" d="M13.366,8.532a1.331,1.331,0,1,0-1.04,1.569h0a1.332,1.332,0,0,0,1.035-1.569" transform="translate(15.829 10.929)" fill="#3f454f"/>
      <path id="Path_5188" data-name="Path 5188" d="M12.086,10.83a1.329,1.329,0,1,0-.109,1.876,1.328,1.328,0,0,0,.109-1.876" transform="translate(14.404 15.235)" fill="#3f454f"/>
      <path id="Path_5189" data-name="Path 5189" d="M7.652,12.463a1.264,1.264,0,1,0-.007.007l.007-.007" transform="translate(8.011 14.888)" fill="#3f454f"/>
      <path id="Path_5190" data-name="Path 5190" d="M6.525,7.208a1.329,1.329,0,1,0,.856,1.673,1.33,1.33,0,0,0-.856-1.673" transform="translate(7.062 10.455)" fill="#3f454f"/>
      <path id="Path_5191" data-name="Path 5191" d="M8.121,5.115A1.33,1.33,0,1,0,9.7,6.135a1.33,1.33,0,0,0-1.582-1.02h0" transform="translate(10.434 7.417)" fill="#3f454f"/>
      <path id="Path_5192" data-name="Path 5192" d="M10.438,6.375a1.264,1.264,0,1,0,.007-.007l-.007.007" transform="translate(14.753 8.811)" fill="#3f454f"/>
      <path id="Path_5193" data-name="Path 5193" d="M12.384,9.1a1.329,1.329,0,1,0,.856,1.673A1.33,1.33,0,0,0,12.384,9.1" transform="translate(15.705 13.243)" fill="#3f454f"/>
      <path id="Path_5194" data-name="Path 5194" d="M9.971,13.727a1.33,1.33,0,1,0-1.582-1.02,1.33,1.33,0,0,0,1.582,1.02h0" transform="translate(12.333 16.288)" fill="#3f454f"/>
      <path id="Path_5195" data-name="Path 5195" d="M8.075,12.4a1.329,1.329,0,1,0,.854,1.676v0A1.332,1.332,0,0,0,8.075,12.4" transform="translate(9.345 18.105)" fill="#3f454f"/>
      <path id="Path_5196" data-name="Path 5196" d="M4.953,11.645a1.329,1.329,0,1,0-1.579-1.022,1.329,1.329,0,0,0,1.579,1.022h0" transform="translate(4.933 13.217)" fill="#3f454f"/>
      <path id="Path_5197" data-name="Path 5197" d="M5.066,7a1.329,1.329,0,1,0,.1-1.876A1.326,1.326,0,0,0,5.066,7" transform="translate(6.974 6.964)" fill="#3f454f"/>
      <path id="Path_5198" data-name="Path 5198" d="M10.014,6.443A1.329,1.329,0,1,0,9.16,4.767v0a1.332,1.332,0,0,0,.854,1.673" transform="translate(13.419 5.595)" fill="#3f454f"/>
      <path id="Path_5199" data-name="Path 5199" d="M13.137,7.192a1.329,1.329,0,1,0,1.579,1.022,1.329,1.329,0,0,0-1.579-1.022h0" transform="translate(17.831 10.482)" fill="#3f454f"/>
      <path id="Path_5200" data-name="Path 5200" d="M13.023,11.843a1.329,1.329,0,1,0-.1,1.876,1.326,1.326,0,0,0,.1-1.876" transform="translate(15.793 16.736)" fill="#3f454f"/>
      <path id="Path_5201" data-name="Path 5201" d="M4.839,11.427a1.265,1.265,0,1,0,.007-.007l-.007.007" transform="translate(6.495 16.261)" fill="#3f454f"/>
      <path id="Path_5202" data-name="Path 5202" d="M4.385,9.319a1.329,1.329,0,1,0-.859-1.673v0a1.331,1.331,0,0,0,.859,1.671" transform="translate(5.108 9.837)" fill="#3f454f"/>
      <path id="Path_5203" data-name="Path 5203" d="M7.825,3.764a1.33,1.33,0,1,0,1.582,1.02,1.33,1.33,0,0,0-1.582-1.02h0" transform="translate(9.997 5.424)" fill="#3f454f"/>
      <path id="Path_5204" data-name="Path 5204" d="M13.251,7.413a1.265,1.265,0,1,0-.007.007Z" transform="translate(16.269 7.441)" fill="#3f454f"/>
      <path id="Path_5205" data-name="Path 5205" d="M13.706,9.521a1.329,1.329,0,1,0,.859,1.673v0a1.331,1.331,0,0,0-.859-1.671" transform="translate(17.658 13.867)" fill="#3f454f"/>
      <path id="Path_5206" data-name="Path 5206" d="M10.261,15.076a1.33,1.33,0,1,0-1.582-1.02,1.33,1.33,0,0,0,1.582,1.02h0" transform="translate(12.761 18.278)" fill="#3f454f"/>
      <path id="Path_5207" data-name="Path 5207" d="M7.684,13.75a1.33,1.33,0,1,0,.874,1.666,1.329,1.329,0,0,0-.874-1.666" transform="translate(8.793 20.111)" fill="#3f454f"/>
      <path id="Path_5208" data-name="Path 5208" d="M3.014,9.4A1.33,1.33,0,1,0,4.6,10.411,1.33,1.33,0,0,0,3.014,9.4h0" transform="translate(2.916 13.74)" fill="#3f454f"/>
      <path id="Path_5209" data-name="Path 5209" d="M5.966,6.078a1.274,1.274,0,1,0-.007.007l.007-.007" transform="translate(5.51 5.479)" fill="#3f454f"/>
      <path id="Path_5210" data-name="Path 5210" d="M10.406,5.089a1.33,1.33,0,1,0-.874-1.666,1.329,1.329,0,0,0,.874,1.666" transform="translate(13.973 3.587)" fill="#3f454f"/>
      <path id="Path_5211" data-name="Path 5211" d="M15.075,9.433a1.33,1.33,0,1,0-1.589-1.007,1.33,1.33,0,0,0,1.589,1.007h0" transform="translate(19.848 9.958)" fill="#3f454f"/>
      <path id="Path_5212" data-name="Path 5212" d="M12.125,12.761a1.274,1.274,0,1,0,.007-.007l-.007.007" transform="translate(17.256 18.219)" fill="#3f454f"/>
      <path id="Path_5213" data-name="Path 5213" d="M3.8,12.383a1.268,1.268,0,1,0,.007-.007l-.007.007" transform="translate(4.963 17.669)" fill="#3f454f"/>
      <path id="Path_5214" data-name="Path 5214" d="M3.849,6.365a1.329,1.329,0,1,0,.861,1.671,1.331,1.331,0,0,0-.861-1.671" transform="translate(3.121 9.212)" fill="#3f454f"/>
      <path id="Path_5215" data-name="Path 5215" d="M8.081,4.982A1.329,1.329,0,1,0,6.5,3.965,1.328,1.328,0,0,0,8.081,4.982h0" transform="translate(9.54 3.389)" fill="#3f454f"/>
      <path id="Path_5216" data-name="Path 5216" d="M14.294,6.454a1.268,1.268,0,1,0-.007.007l.007-.007" transform="translate(17.803 6.028)" fill="#3f454f"/>
      <path id="Path_5217" data-name="Path 5217" d="M15.051,9.941a1.329,1.329,0,1,0,.861,1.671,1.331,1.331,0,0,0-.861-1.671" transform="translate(19.647 14.488)" fill="#3f454f"/>
      <path id="Path_5218" data-name="Path 5218" d="M10.009,13.854a1.329,1.329,0,1,0,1.584,1.017,1.328,1.328,0,0,0-1.584-1.017Z" transform="translate(13.226 20.309)" fill="#3f454f"/>
    </g>
  </g>
</svg>
