<svg xmlns="http://www.w3.org/2000/svg" width="116" height="101" viewBox="0 0 116 101">
  <g id="Group_4872" data-name="Group 4872" transform="translate(-117 -292)">
    <path id="Polygon_38" data-name="Polygon 38" d="M44.125,24.162a16,16,0,0,1,27.75,0l30.361,52.871A16,16,0,0,1,88.361,101H27.639A16,16,0,0,1,13.764,77.032Z" transform="translate(117 292)" fill="rgba(255,0,80,0.4)"/>
    <path id="Polygon_36" data-name="Polygon 36" d="M35.192,13.618a9,9,0,0,1,15.616,0L78.273,61.524A9,9,0,0,1,70.466,75H15.534A9,9,0,0,1,7.727,61.524Z" transform="translate(132 310)" fill="#ff0050"/>
    <path id="Polygon_37" data-name="Polygon 37" d="M30.663,7.558a5,5,0,0,1,8.674,0L65.7,53.512A5,5,0,0,1,61.367,61H8.633A5,5,0,0,1,4.3,53.512Z" transform="translate(140 319)" fill="#fff"/>
    <path id="Path_4293" data-name="Path 4293" d="M-2,0H7.095L5.786,25.371H-.549Z" transform="translate(172.452 338.667)" fill="#ff0050"/>
    <rect id="Rectangle_3102" data-name="Rectangle 3102" width="6.298" height="6.298" transform="translate(171.936 366.837)" fill="#ff0050"/>
  </g>
</svg>
