<svg xmlns="http://www.w3.org/2000/svg" width="70.748" height="63.953" viewBox="0 0 70.748 63.953">
  <g id="Group_4871" data-name="Group 4871" transform="translate(-136.626 -214.047)">
    <g id="Polygon_35" data-name="Polygon 35" transform="translate(137 213)" fill="#ff0050">
      <path d="M 61.3665771484375 63 L 61.3665771484375 61 L 61.36657333374023 60.81818008422852 L 61.3665657043457 61 L 61.3665657043457 63 L 8.633425712585449 63 C 6.106736183166504 63.00000762939453 3.84225606918335 61.69464874267578 2.575966119766235 59.50815963745117 C 1.309666156768799 57.32167053222656 1.304396152496338 54.7078971862793 2.561866283416748 52.51630783081055 L 28.92843627929688 6.563148975372314 C 30.1917552947998 4.36133861541748 32.46150588989258 3.046828746795654 35.00000762939453 3.046828746795654 C 37.53849792480469 3.046828746795654 39.80824661254883 4.36133861541748 41.07157516479492 6.563148975372314 L 67.43813323974609 52.51630783081055 C 68.69552612304688 54.70776748657227 68.690185546875 57.32149887084961 67.42386627197266 59.50803756713867 C 66.15752410888672 61.69458770751953 63.89312744140625 63 61.3665771484375 63 Z M 61.36652755737305 59 L 61.36651611328125 61 L 61.36655807495117 60.25 L 61.36652755737305 59 Z" stroke="none"/>
      <path d="M 34.99999618530273 5.046825408935547 C 33.31195068359375 5.046825408935547 31.6239013671875 5.884044647216797 30.66316223144531 7.558486938476562 L 4.296592712402344 53.51165008544922 C 2.384033203125 56.844970703125 4.790397644042969 61.00000381469727 8.633419036865234 60.99999237060547 L 61.36657333374023 60.99999237060547 C 61.36680603027344 60.99999237060547 61.36635589599609 60.99999237060547 61.3665885925293 60.99999237060547 C 65.20920562744141 60.99999237060547 67.6158447265625 56.84476470947266 65.70340728759766 53.51165008544922 L 39.33683013916016 7.558486938476562 C 38.37609100341797 5.884044647216797 36.68804168701172 5.046825408935547 34.99999618530273 5.046825408935547 M 34.99999618530273 1.046829223632812 C 36.53637313842773 1.046829223632812 38.0525016784668 1.43817138671875 39.38449096679688 2.178535461425781 C 40.80335998535156 2.967205047607422 41.98661041259766 4.139205932617188 42.80630111694336 5.567817687988281 L 69.17288208007812 51.52096939086914 C 69.98897552490234 52.94332122802734 70.4036865234375 54.54946517944336 70.3721923828125 56.16575622558594 C 70.34262084960938 57.68365097045898 69.92156982421875 59.18599319458008 69.15457153320312 60.51035690307617 C 68.3875732421875 61.83473587036133 67.29402160644531 62.94761657714844 65.99215698242188 63.72867584228516 C 64.60590362548828 64.56037902832031 63.00640869140625 64.99999237060547 61.36658477783203 64.99999237060547 L 8.633419036865234 64.99999237060547 C 6.993572235107422 64.99999237060547 5.394065856933594 64.5604248046875 4.007804870605469 63.72880554199219 C 2.705863952636719 62.94775772094727 1.612281799316406 61.83488845825195 0.8452529907226562 60.5104866027832 C 0.07823944091796875 59.18608856201172 -0.3427886962890625 57.68368530273438 -0.3723068237304688 56.16572189331055 C -0.4037322998046875 54.54946517944336 0.011016845703125 52.94332122802734 0.8271408081054688 51.52096939086914 L 27.19369125366211 5.567806243896484 C 28.01338577270508 4.139205932617188 29.19663238525391 2.967205047607422 30.61550140380859 2.178535461425781 C 31.94749069213867 1.43817138671875 33.46361923217773 1.046829223632812 34.99999618530273 1.046829223632812 Z" stroke="none" fill="#fff"/>
    </g>
    <path id="Path_4292" data-name="Path 4292" d="M-2,0H7.095L5.786,25.371H-.549Z" transform="translate(169.452 232.667)" fill="#fff"/>
    <rect id="Rectangle_3101" data-name="Rectangle 3101" width="6.298" height="6.298" transform="translate(168.936 260.837)" fill="#fff"/>
  </g>
</svg>
