<svg xmlns="http://www.w3.org/2000/svg" width="71" height="71" viewBox="0 0 71 71">
  <g id="Group_5349" data-name="Group 5349" transform="translate(-596 -81)">
    <g id="Ellipse_363" data-name="Ellipse 363" transform="translate(596 81)" fill="rgba(137,64,255,0.48)" stroke="#ff0050" stroke-width="4">
      <circle cx="35.5" cy="35.5" r="35.5" stroke="none"/>
      <circle cx="35.5" cy="35.5" r="33.5" fill="none"/>
    </g>
    <g id="Ellipse_364" data-name="Ellipse 364" transform="translate(606 91)" fill="#fff" stroke="#ff0050" stroke-width="4">
      <circle cx="25" cy="25" r="25" stroke="none"/>
      <circle cx="25" cy="25" r="23" fill="none"/>
    </g>
    <g id="유동인구_sensors" transform="translate(615.04 104.709)">
      <path id="sensors_FILL0_wght400_GRAD0_opsz24" d="M84.668-740.417a16.674,16.674,0,0,1-3.411-5.087,15.4,15.4,0,0,1-1.257-6.2,15.5,15.5,0,0,1,1.257-6.244A16.178,16.178,0,0,1,84.668-763l2.274,2.274a12.948,12.948,0,0,0-2.753,4.07,12.364,12.364,0,0,0-1,4.947,12.464,12.464,0,0,0,1,4.987,12.48,12.48,0,0,0,2.753,4.03Zm4.509-4.509a10.219,10.219,0,0,1-2.035-3.052,9.218,9.218,0,0,1-.758-3.731,9.318,9.318,0,0,1,.758-3.771,9.708,9.708,0,0,1,2.035-3.012l2.274,2.274a6.471,6.471,0,0,0-1.377,2.035,6.181,6.181,0,0,0-.5,2.474,6.182,6.182,0,0,0,.5,2.474,6.475,6.475,0,0,0,1.377,2.035Zm6.783-3.591a3.074,3.074,0,0,1-2.254-.938,3.073,3.073,0,0,1-.938-2.254,3.073,3.073,0,0,1,.938-2.254,3.073,3.073,0,0,1,2.254-.938,3.073,3.073,0,0,1,2.254.938,3.073,3.073,0,0,1,.938,2.254,3.073,3.073,0,0,1-.938,2.254A3.074,3.074,0,0,1,95.96-748.517Zm6.783,3.591-2.274-2.274a6.475,6.475,0,0,0,1.377-2.035,6.182,6.182,0,0,0,.5-2.474,6.181,6.181,0,0,0-.5-2.474,6.471,6.471,0,0,0-1.377-2.035l2.274-2.274a9.708,9.708,0,0,1,2.035,3.012,9.318,9.318,0,0,1,.758,3.771,9.218,9.218,0,0,1-.758,3.731A10.219,10.219,0,0,1,102.742-744.926Zm4.509,4.509-2.274-2.274a12.947,12.947,0,0,0,2.753-4.07,12.365,12.365,0,0,0,1-4.948,12.465,12.465,0,0,0-1-4.987,12.48,12.48,0,0,0-2.753-4.03L107.251-763a16.178,16.178,0,0,1,3.411,5.047,15.5,15.5,0,0,1,1.257,6.244,15.4,15.4,0,0,1-1.257,6.2A16.674,16.674,0,0,1,107.251-740.417Z" transform="translate(-80 763)" fill="#8940ff"/>
    </g>
  </g>
</svg>
