<svg xmlns="http://www.w3.org/2000/svg" width="56" height="56" viewBox="0 0 56 56">
  <g id="Group_4885" data-name="Group 4885" transform="translate(-649 -247)">
    <g id="Ellipse_358" data-name="Ellipse 358" transform="translate(649 247)" fill="#8940ff" stroke="#fff" stroke-width="3">
      <circle cx="28" cy="28" r="28" stroke="none"/>
      <circle cx="28" cy="28" r="26.5" fill="none"/>
    </g>
    <g id="유동인구_sensors" transform="translate(659.318 262.98)">
      <path id="sensors_FILL0_wght400_GRAD0_opsz24" d="M85.172-737.98a18.473,18.473,0,0,1-3.78-5.636A17.06,17.06,0,0,1,80-750.49a17.17,17.17,0,0,1,1.392-6.918A17.924,17.924,0,0,1,85.172-763l2.52,2.52a14.344,14.344,0,0,0-3.05,4.509,13.7,13.7,0,0,0-1.105,5.481,13.809,13.809,0,0,0,1.105,5.526,13.826,13.826,0,0,0,3.05,4.465Zm5-5a11.321,11.321,0,0,1-2.254-3.382,10.213,10.213,0,0,1-.84-4.133,10.323,10.323,0,0,1,.84-4.177A10.754,10.754,0,0,1,90.167-758l2.52,2.52a7.17,7.17,0,0,0-1.525,2.255,6.848,6.848,0,0,0-.553,2.741,6.849,6.849,0,0,0,.553,2.741,7.174,7.174,0,0,0,1.525,2.255Zm7.515-3.978a3.406,3.406,0,0,1-2.5-1.039,3.4,3.4,0,0,1-1.039-2.5,3.4,3.4,0,0,1,1.039-2.5,3.4,3.4,0,0,1,2.5-1.039,3.4,3.4,0,0,1,2.5,1.039,3.4,3.4,0,0,1,1.039,2.5,3.4,3.4,0,0,1-1.039,2.5A3.406,3.406,0,0,1,97.682-746.954Zm7.515,3.978-2.52-2.52a7.174,7.174,0,0,0,1.525-2.255,6.849,6.849,0,0,0,.553-2.741,6.848,6.848,0,0,0-.553-2.741,7.17,7.17,0,0,0-1.525-2.255L105.2-758a10.754,10.754,0,0,1,2.254,3.337,10.323,10.323,0,0,1,.84,4.177,10.213,10.213,0,0,1-.84,4.133A11.321,11.321,0,0,1,105.2-742.975Zm5,5-2.52-2.52a14.344,14.344,0,0,0,3.05-4.509,13.7,13.7,0,0,0,1.105-5.481,13.81,13.81,0,0,0-1.105-5.526,13.827,13.827,0,0,0-3.05-4.465l2.52-2.52a17.924,17.924,0,0,1,3.78,5.592,17.17,17.17,0,0,1,1.392,6.918,17.06,17.06,0,0,1-1.392,6.874A18.473,18.473,0,0,1,110.192-737.98Z" transform="translate(-80 763)" fill="#fff"/>
    </g>
  </g>
</svg>
