<?xml version="1.0" encoding="utf-8"?>
<!-- Generator: Adobe Illustrator 16.0.0, SVG Export Plug-In . SVG Version: 6.00 Build 0)  -->
<!DOCTYPE svg PUBLIC "-//W3C//DTD SVG 1.1//EN" "http://www.w3.org/Graphics/SVG/1.1/DTD/svg11.dtd">
<svg version="1.1" xmlns="http://www.w3.org/2000/svg" xmlns:xlink="http://www.w3.org/1999/xlink" x="0px" y="0px"
	 width="48px" height="48px" viewBox="0 0 48 48" enable-background="new 0 0 48 48" xml:space="preserve">
<circle fill="#6E8DC8" cx="24" cy="24" r="24"/>
<circle fill="#FFFFFF" cx="24.1" cy="24.2" r="20.2"/>
<g>
	<path fill="#39393A" d="M23.4,30.3H8.1V28.4h6.4V25.3H9.7v-8.7H12v2.6h7.3v-2.6h2.3v8.7h-4.8V28.4h6.5V30.3H23.4z M19.3,23.4V21H12
		v2.4H19.3z"/>
	<path fill="#39393A" d="M39.6,30.3H24.3V28.4h6.5v-3.7h2.3v3.7h6.5V30.3z M30.7,18.7H25.6v-1.9h12.7v1.9h-5.1
		c0.2,2.2,2.3,4.2,5.8,4.8l-0.9,1.9C35.2,24.9,33,23.5,31.9,21.5c-1.101,2-3.2,3.5-6.101,4L24.9,23.6C28.4,23,30.5,20.9,30.7,18.7z"
		/>
</g>
</svg>
