<?xml version="1.0" encoding="utf-8"?>
<!-- Generator: Adobe Illustrator 16.0.0, SVG Export Plug-In . SVG Version: 6.00 Build 0)  -->
<!DOCTYPE svg PUBLIC "-//W3C//DTD SVG 1.1//EN" "http://www.w3.org/Graphics/SVG/1.1/DTD/svg11.dtd">
<svg version="1.1" xmlns="http://www.w3.org/2000/svg" xmlns:xlink="http://www.w3.org/1999/xlink" x="0px" y="0px"
	 width="48px" height="48px" viewBox="0 0 48 48" enable-background="new 0 0 48 48" xml:space="preserve">
<circle fill="#EE2930" cx="24" cy="24" r="24"/>
<circle fill="#F1EA3E" cx="23.9" cy="24.3" r="20.2"/>
<g>
	<path fill="#39393A" d="M23.5,26.3H17V31.9h-2.3V26.3H8.3v-1.9h15.2V26.3z M14.5,17.9H9.7v-1.8h12.5v1.8h-4.9
		c0.2,1.6,2.1,3.3,5.5,3.7L22,23.4c-2.9-0.4-5-1.6-6-3.4c-1,1.7-3.1,3-6,3.4l-0.9-1.8C12.4,21.2,14.3,19.6,14.5,17.9z"/>
	<path fill="#39393A" d="M35.3,26.1l0.2,1.7c-3.7,0.7-7.7,0.8-10.6,0.8L24.6,26.7C27.6,26.6,31.7,26.6,35.3,26.1z M34.6,20.4
		c0,2.4-2,4.1-4.6,4.1s-4.6-1.7-4.6-4.1s2-4.1,4.6-4.1S34.5,18,34.6,20.4z M29.9,22.5c1.3,0,2.3-0.8,2.3-2.1c0-1.3-1-2.1-2.3-2.1
		c-1.301,0-2.301,0.8-2.301,2.1C27.6,21.7,28.6,22.5,29.9,22.5z M36.2,15.2h2.3v16.7h-2.3V15.2z"/>
</g>
</svg>
