<?xml version="1.0" encoding="utf-8"?>
<!-- Generator: Adobe Illustrator 16.0.0, SVG Export Plug-In . SVG Version: 6.00 Build 0)  -->
<!DOCTYPE svg PUBLIC "-//W3C//DTD SVG 1.1//EN" "http://www.w3.org/Graphics/SVG/1.1/DTD/svg11.dtd">
<svg version="1.1" xmlns="http://www.w3.org/2000/svg" xmlns:xlink="http://www.w3.org/1999/xlink" x="0px"
	 y="0px" width="48px" height="48px" viewBox="0 0 48 48" enable-background="new 0 0 48 48" xml:space="preserve">
<circle fill="#6E8DC8" cx="24" cy="23.945" r="24"/>
<circle fill="#2C5AA9" cx="24" cy="23.945" r="20.2"/>
<g>
	<path fill="#FFFFFF" d="M19,26.445l-1.3,1.8c-2-0.8-3.3-2.5-4.1-4.5c-0.8,2.2-2.1,4-4.1,4.9l-1.3-1.9c2.8-1.2,4.2-4.3,4.2-7.2v-1
		H8.9v-1.9h9.4v1.9h-3.5v1C14.8,22.345,16.2,25.245,19,26.445z M20,15.145h2.4v16.7H20V15.145z"/>
	<path fill="#FFFFFF" d="M35.3,26.245l-1.399,1.9c-1.9-0.9-3.2-2.5-4-4.601c-0.801,2.3-2.101,4.101-4.2,5l-1.4-1.899
		c2.9-1.2,4.3-4.4,4.3-7.701v-2.5H31v2.5C31.1,21.945,32.5,25.045,35.3,26.245z M36.2,15.145H38.6v16.7H36.2V15.145z"/>
</g>
</svg>
