<?xml version="1.0" encoding="utf-8"?>
<!-- Generator: Adobe Illustrator 28.0.0, SVG Export Plug-In . SVG Version: 6.00 Build 0)  -->
<svg version="1.1" xmlns="http://www.w3.org/2000/svg" xmlns:xlink="http://www.w3.org/1999/xlink" x="0px" y="0px"
	 width='48px'  height='48px' viewBox="0 0 48 48" style="enable-background:new 0 0 48 48;" xml:space="preserve">
<g>
	<polygon fill-rule="evenodd" clip-rule="evenodd" fill="#C7C5C7" points="21.1,31.8 24.3,31.8 17.9,39.1 11.5,31.8 14.7,31.8"/>
</g>
<g>
	<rect x="16" y="8.6" fill="#C7C5C7" width="3.8" height="23.6"/>
</g>
<g>
	<polygon fill-rule="evenodd" clip-rule="evenodd" fill="#C7C5C7" points="33.4,15.7 36.6,15.7 30.2,8.3 23.8,15.7 27,15.7"/>
</g>
<g>
	<rect x="28.3" y="15.2" fill="#C7C5C7" width="3.8" height="23.6"/>
</g>
<g>
	<path fill="rgba(0,0,0,0.1)" d="M24,5.4C13.8,5.4,5.4,13.7,5.4,24S13.8,42.6,24,42.6S42.6,34.3,42.6,24S34.3,5.4,24,5.4z"/>
	<path fill="#C7C5C7" d="M24,48c-13.2,0-24-10.8-24-24S10.8,0,24,0c13.2,0,24,10.8,24,24S37.2,48,24,48z M24,5.4C13.8,5.4,5.4,13.7,5.4,24S13.8,42.6,24,42.6S42.6,34.3,42.6,24S34.3,5.4,24,5.4z"/>
</g>
</svg>
