<?xml version="1.0" encoding="utf-8"?>
<!-- Generator: Adobe Illustrator 28.0.0, SVG Export Plug-In . SVG Version: 6.00 Build 0)  -->
<svg version="1.1" xmlns="http://www.w3.org/2000/svg" xmlns:xlink="http://www.w3.org/1999/xlink" x="0px" y="0px"
	 width='48px'  height='48px' viewBox="0 0 48 48" style="enable-background:new 0 0 48 48;" xml:space="preserve">
<g>
	<polygon fill-rule="evenodd" clip-rule="evenodd" fill="#36B45C" points="33.7,16.2 36.9,16.2 30.5,8.8 24.1,16.2 27.3,16.2"/>
</g>
<g>
	<rect x="28.6" y="15.7" fill="#36B45C" width="3.8" height="23.6"/>
</g>
<g>
	<polygon fill-rule="evenodd" clip-rule="evenodd" fill="#36B45C" points="21.1,31.8 24.3,31.8 17.9,39.1 11.5,31.8 14.7,31.8"/>
</g>
<g>
	<rect x="16" y="8.6" fill="#36B45C" width="3.8" height="23.6"/>
</g>
<g>
	<path fill="rgba(0,0,0,0.1)" d="M24,5.4C13.7,5.4,5.4,13.7,5.4,24S13.7,42.6,24,42.6S42.5,34.3,42.5,24S34.2,5.4,24,5.4z"/>
	<path fill="#70BF45" d="M24,48C10.8,48,0.1,37.2,0.1,24S10.8,0,24,0c13.2,0,23.9,10.8,23.9,24S37.2,48,24,48z M24,5.4C13.7,5.4,5.4,13.7,5.4,24S13.7,42.6,24,42.6S42.5,34.3,42.5,24S34.2,5.4,24,5.4z"/>
</g>
</svg>
